<svg id="svgbox" width="314px" height="240px" xmlns="http://www.w3.org/2000/svg" version="1.1" preserveAspectRatio="xMidYMid meet" viewBox="-141 -124 314 240">
<line x1="91.90560290308625" y1="-28.6714566156159" x2="91.90560290308625" y2="-28.6714566156159" stroke-width="1.0" stroke="#000000"/>
<line x1="91.61020605525533" y1="-29.5841709527627" x2="91.61020605525533" y2="-47.584170952762705" stroke-width="1.0" stroke="#8c7d15"/>
<line x1="76.68371265231242" y1="-57.879917892340316" x2="76.68371265231242" y2="-66.87991789234032" stroke-width="1.0" stroke="#5e1010"/>
<line x1="53.48162736189502" y1="-79.57127384553615" x2="53.48162736189502" y2="-85.57127384553615" stroke-width="1.0" stroke="#8c7d15"/>
<line x1="51.871326463866154" y1="-80.61609449261624" x2="51.871326463866154" y2="-104.61609449261624" stroke-width="1.0" stroke="#000000"/>
<line x1="5.991664400066614" y1="96.26194080516754" x2="5.991664400066614" y2="96.26194080516754" stroke-width="1.0" stroke="#8c7d15"/>
<line x1="-86.03525064753616" y1="42.124646272189" x2="-86.03525064753616" y2="42.124646272189" stroke-width="1.0" stroke="#008651"/>
<line x1="-66.37824815827439" y1="-68.50029534289274" x2="-66.37824815827439" y2="-68.50029534289274" stroke-width="1.0" stroke="#4b9945"/>
<line x1="-3.359457516035866" y1="-95.48843028333532" x2="-3.359457516035866" y2="-95.48843028333532" stroke-width="1.0" stroke="#5c5c5c"/>
<line x1="82.35935393416852" y1="-25.693348050865907" x2="91.90560290308625" y2="-28.6714566156159" stroke-width="1.0" stroke="#000000"/>
<line x1="82.09410649427731" y1="-26.511086322370325" x2="91.61020605525533" y2="-29.5841709527627" stroke-width="1.0" stroke="#8c7d15"/>
<line x1="68.70209230409672" y1="-51.85548956950759" x2="76.68371265231242" y2="-57.879917892340316" stroke-width="1.0" stroke="#5e1010"/>
<line x1="47.903317589886534" y1="-71.27172806956055" x2="53.48162736189502" y2="-79.57127384553615" stroke-width="1.0" stroke="#8c7d15"/>
<line x1="46.460304395554516" y1="-72.2065261222274" x2="51.871326463866154" y2="-80.61609449261624" stroke-width="1.0" stroke="#000000"/>
<line x1="5.370433266089102" y1="86.28125586483519" x2="5.991664400066614" y2="96.26194080516754" stroke-width="1.0" stroke="#8c7d15"/>
<line x1="-77.05400228208242" y1="37.72724046898699" x2="-86.03525064753616" y2="42.124646272189" stroke-width="1.0" stroke="#008651"/>
<line x1="-59.41929083181378" y1="-61.31886700804874" x2="-66.37824815827439" y2="-68.50029534289274" stroke-width="1.0" stroke="#4b9945"/>
<line x1="-3.0078567690769207" y1="-85.49461334911355" x2="-3.359457516035866" y2="-95.48843028333532" stroke-width="1.0" stroke="#5c5c5c"/>
<ellipse cx="0.0" cy="0.0" rx="85.9933257531638" ry="85.9933257531638" stroke-width="3.0" stroke="#000000" fill="none"/>
<ellipse cx="0.0" cy="0.0" rx="85.9933257531638" ry="85.9933257531638" stroke-width="1.0" stroke="#ffffff" fill="none"/>
<line x1="0.0" y1="-1.3758932120506209" x2="0.0" y2="1.3758932120506209" stroke-width="3.0" stroke="#000000"/>
<line x1="-1.3758932120506209" y1="0.0" x2="1.3758932120506209" y2="0.0" stroke-width="3.0" stroke="#000000"/>
<line x1="0.0" y1="-1.3758932120506209" x2="0.0" y2="1.3758932120506209" stroke-width="1.0" stroke="#ffffff"/>
<line x1="-1.3758932120506209" y1="0.0" x2="1.3758932120506209" y2="0.0" stroke-width="1.0" stroke="#ffffff"/>
<path d="M 90.0 -46.0 C 171.0 -46.0, 90.0 -46.0, 171.0 -46.0 C 171.0 -28.0, 171.0 -46.0, 171.0 -28.0 C 90.0 -28.0, 171.0 -28.0, 90.0 -28.0 C 90.0 -46.0, 90.0 -28.0, 90.0 -46.0 z" stroke-width="1.0" stroke="#ffffff" fill="#ffffff"/>
<text x="92" y="-32.0"  font-weight="normal" font-style="roman" font-family="Arial" font-size="14.0" fill="#000000" >505 BsaI (2)</text>
<path d="M 94.0 -66.0 C 130.0 -66.0, 94.0 -66.0, 130.0 -66.0 C 132.76142374915398 -66.0, 135.0 -63.76142374915397, 135.0 -61.0 C 135.0 -51.0, 135.0 -61.0, 135.0 -51.0 C 135.0 -48.23857625084603, 132.76142374915398 -46.0, 130.0 -46.0 C 94.0 -46.0, 130.0 -46.0, 94.0 -46.0 C 91.23857625084604 -46.0, 89.0 -48.23857625084603, 89.0 -51.0 C 89.0 -61.0, 89.0 -51.0, 89.0 -61.0 C 89.0 -63.76142374915397, 91.23857625084604 -66.0, 94.0 -66.0 z" stroke-width="2.0" stroke="#ffffff" fill="none"/>
<text x="92" y="-51.0"  font-weight="normal" font-style="roman" font-family="Arial" font-size="14.0" fill="#e9d024" >CGCT</text>
<path d="M 79.0 -85.0 C 102.0 -85.0, 79.0 -85.0, 102.0 -85.0 C 104.76142374915398 -85.0, 107.0 -82.76142374915396, 107.0 -80.0 C 107.0 -70.0, 107.0 -80.0, 107.0 -70.0 C 107.0 -67.23857625084602, 104.76142374915398 -65.0, 102.0 -65.0 C 79.0 -65.0, 102.0 -65.0, 79.0 -65.0 C 76.23857625084604 -65.0, 74.0 -67.23857625084602, 74.0 -70.0 C 74.0 -80.0, 74.0 -70.0, 74.0 -80.0 C 74.0 -82.76142374915396, 76.23857625084604 -85.0, 79.0 -85.0 z" stroke-width="2.0" stroke="#ffffff" fill="none"/>
<text x="77" y="-70.0"  font-weight="normal" font-style="roman" font-family="Arial" font-size="14.0" fill="#9d1b1c" >nost</text>
<path d="M 55.0 -104.0 C 90.0 -104.0, 55.0 -104.0, 90.0 -104.0 C 92.76142374915398 -104.0, 95.0 -101.76142374915396, 95.0 -99.0 C 95.0 -89.0, 95.0 -99.0, 95.0 -89.0 C 95.0 -86.23857625084602, 92.76142374915398 -84.0, 90.0 -84.0 C 55.0 -84.0, 90.0 -84.0, 55.0 -84.0 C 52.23857625084603 -84.0, 50.0 -86.23857625084602, 50.0 -89.0 C 50.0 -99.0, 50.0 -89.0, 50.0 -99.0 C 50.0 -101.76142374915396, 52.23857625084603 -104.0, 55.0 -104.0 z" stroke-width="2.0" stroke="#ffffff" fill="none"/>
<text x="53" y="-89.0"  font-weight="normal" font-style="roman" font-family="Arial" font-size="14.0" fill="#e9d024" >GCTT</text>
<path d="M 50.0 -122.0 C 131.0 -122.0, 50.0 -122.0, 131.0 -122.0 C 131.0 -104.0, 131.0 -122.0, 131.0 -104.0 C 50.0 -104.0, 131.0 -104.0, 50.0 -104.0 C 50.0 -122.0, 50.0 -104.0, 50.0 -122.0 z" stroke-width="1.0" stroke="#ffffff" fill="#ffffff"/>
<text x="52" y="-108.0"  font-weight="normal" font-style="roman" font-family="Arial" font-size="14.0" fill="#000000" >226 BsaI (2)</text>
<path d="M 8.0 94.0 C 104.0 94.0, 8.0 94.0, 104.0 94.0 C 106.76142374915396 94.0, 109.0 96.23857625084604, 109.0 99.0 C 109.0 109.0, 109.0 99.0, 109.0 109.0 C 109.0 111.76142374915398, 106.76142374915396 114.0, 104.0 114.0 C 8.0 114.0, 104.0 114.0, 8.0 114.0 C 5.238576250846032 114.0, 3.0 111.76142374915398, 3.0 109.0 C 3.0 99.0, 3.0 109.0, 3.0 99.0 C 3.0 96.23857625084604, 5.238576250846032 94.0, 8.0 94.0 z" stroke-width="2.0" stroke="#ffffff" fill="none"/>
<text x="6" y="109.0"  font-weight="normal" font-style="roman" font-family="Arial" font-size="14.0" fill="#e9d024" >Sm/Sp\no\DraIII</text>
<path d="M -124.0 40.0 C -88.0 40.0, -124.0 40.0, -88.0 40.0 C -85.23857625084602 40.0, -83.0 42.23857625084603, -83.0 45.0 C -83.0 55.0, -83.0 45.0, -83.0 55.0 C -83.0 57.76142374915397, -85.23857625084602 60.0, -88.0 60.0 C -124.0 60.0, -88.0 60.0, -124.0 60.0 C -126.76142374915396 60.0, -129.0 57.76142374915397, -129.0 55.0 C -129.0 45.0, -129.0 55.0, -129.0 45.0 C -129.0 42.23857625084603, -126.76142374915396 40.0, -124.0 40.0 z" stroke-width="2.0" stroke="#ffffff" fill="none"/>
<text x="-126" y="55.0"  font-weight="normal" font-style="roman" font-family="Arial" font-size="14.0" fill="#00df87" >G\to\A</text>
<path d="M -135.0 -87.0 C -68.0 -87.0, -135.0 -87.0, -68.0 -87.0 C -65.23857625084604 -87.0, -63.0 -84.76142374915396, -63.0 -82.0 C -63.0 -72.0, -63.0 -82.0, -63.0 -72.0 C -63.0 -69.23857625084602, -65.23857625084604 -67.0, -68.0 -67.0 C -135.0 -67.0, -68.0 -67.0, -135.0 -67.0 C -137.76142374915398 -67.0, -140.0 -69.23857625084602, -140.0 -72.0 C -140.0 -82.0, -140.0 -72.0, -140.0 -82.0 C -140.0 -84.76142374915396, -137.76142374915398 -87.0, -135.0 -87.0 z" stroke-width="2.0" stroke="#ffffff" fill="none"/>
<text x="-137" y="-72.0"  font-weight="normal" font-style="roman" font-family="Arial" font-size="14.0" fill="#7eff74" >rep\(pMB1)</text>
<path d="M -26.0 -113.0 C -5.0 -113.0, -26.0 -113.0, -5.0 -113.0 C -2.2385762508460303 -113.0, 0.0 -110.76142374915396, 0.0 -108.0 C 0.0 -98.0, 0.0 -108.0, 0.0 -98.0 C 0.0 -95.23857625084602, -2.2385762508460303 -93.0, -5.0 -93.0 C -26.0 -93.0, -5.0 -93.0, -26.0 -93.0 C -28.76142374915397 -93.0, -31.0 -95.23857625084602, -31.0 -98.0 C -31.0 -108.0, -31.0 -98.0, -31.0 -108.0 C -31.0 -110.76142374915396, -28.76142374915397 -113.0, -26.0 -113.0 z" stroke-width="2.0" stroke="#ffffff" fill="none"/>
<text x="-28" y="-98.0"  font-weight="normal" font-style="roman" font-family="Arial" font-size="14.0" fill="#999999" >ORI</text>
<path d="M -76.25663439090526,39.74641852370539 A 85.9933257531638,85.9933257531638 0 0 0 83.21338245809974,21.68836217817663" stroke-width="7.0037523452157595" stroke="#8c7d15" fill="none"/>
<polygon points="-78.36767421631619 41.10849549434319 -80.58323181218398 42.27068692541448 -80.27530531203321 30.833868248236353 -71.72100142871278 37.62192120112931 -73.93655902458059 38.7841126322006" stroke-width="2.0" stroke="#8c7d15" fill="#000000"/>
<polygon points="85.57572455104554 22.543205882187326 85.70544879161832 22.044881748614415 80.85943645358738 20.798405935810944 80.73704716405004 21.268553507290303" stroke-width="2.0" stroke="#8c7d15" fill="#000000"/>
<path d="M -76.25663439090526,39.74641852370539 A 85.9933257531638,85.9933257531638 0 0 0 83.21338245809974,21.68836217817663" stroke-width="5.0037523452157595" stroke="#e9d024" fill="none"/>
<polygon points="-78.36767421631619 41.10849549434319 -80.58323181218398 42.27068692541448 -80.27530531203321 30.833868248236353 -71.72100142871278 37.62192120112931 -73.93655902458059 38.7841126322006" stroke-width="1.0" stroke="none" fill="#e9d024"/>
<polygon points="85.57572455104554 22.543205882187326 85.70544879161832 22.044881748614415 80.85943645358738 20.798405935810944 80.73704716405004 21.268553507290303" stroke-width="1.0" stroke="none" fill="#e9d024"/>
<path d="M -77.16670241652342,37.94933612396222 A 85.9933257531638,85.9933257531638 0 0 0 -76.96679274673197,38.353160083249364" stroke-width="7.0037523452157595" stroke="#008651" fill="none"/>
<polygon points="-79.30906808709912 39.261590429311184 -81.55124013033918 40.3715674162689 -77.93392371648278 36.34770430499275 -72.58255195737894 35.93165946843802 -74.824724000619 37.04163645539574" stroke-width="2.0" stroke="#008651" fill="#000000"/>
<polygon points="-79.30906808709912 39.261590429311184 -79.2633235731377 39.35386003968579 -74.78156600224298 37.128688898406956 -74.824724000619 37.04163645539574" stroke-width="2.0" stroke="#008651" fill="#000000"/>
<path d="M -77.16670241652342,37.94933612396222 A 85.9933257531638,85.9933257531638 0 0 0 -76.96679274673197,38.353160083249364" stroke-width="5.0037523452157595" stroke="#00df87" fill="none"/>
<polygon points="-79.30906808709912 39.261590429311184 -81.55124013033918 40.3715674162689 -77.93392371648278 36.34770430499275 -72.58255195737894 35.93165946843802 -74.824724000619 37.04163645539574" stroke-width="1.0" stroke="none" fill="#00df87"/>
<polygon points="-79.30906808709912 39.261590429311184 -79.2633235731377 39.35386003968579 -74.78156600224298 37.128688898406956 -74.824724000619 37.04163645539574" stroke-width="1.0" stroke="none" fill="#00df87"/>
<path d="M -2.26235090030026,-85.9635611319916 A 85.9933257531638,85.9933257531638 0 0 0 -2.7127593430822174,-85.95052653030268" stroke-width="7.0037523452157595" stroke="#5c5c5c" fill="none"/>
<polygon points="-2.4153035950679227 -83.45650640666769 -2.3181791673156336 -83.45926071090456 -2.457110692679727 -88.46108393484123 -2.560055915083262 -88.45816456153017" stroke-width="2.0" stroke="#5c5c5c" fill="#000000"/>
<polygon points="-2.4153035950679227 -83.45650640666769 -2.342927435060253 -80.95567732923644 -4.487488591941211 -85.87615804300367 -2.6324320750909314 -90.9589936389614 -2.560055915083262 -88.45816456153017" stroke-width="2.0" stroke="#5c5c5c" fill="#000000"/>
<path d="M -2.26235090030026,-85.9635611319916 A 85.9933257531638,85.9933257531638 0 0 0 -2.7127593430822174,-85.95052653030268" stroke-width="5.0037523452157595" stroke="#999999" fill="none"/>
<polygon points="-2.4153035950679227 -83.45650640666769 -2.3181791673156336 -83.45926071090456 -2.457110692679727 -88.46108393484123 -2.560055915083262 -88.45816456153017" stroke-width="1.0" stroke="none" fill="#999999"/>
<polygon points="-2.4153035950679227 -83.45650640666769 -2.342927435060253 -80.95567732923644 -4.487488591941211 -85.87615804300367 -2.6324320750909314 -90.9589936389614 -2.560055915083262 -88.45816456153017" stroke-width="1.0" stroke="none" fill="#999999"/>
<path d="M -10.024199742132017,-85.4070693421779 A 85.9933257531638,85.9933257531638 0 0 0 -85.93279278849583,-3.2260188559868777" stroke-width="7.0037523452157595" stroke="#4b9945" fill="none"/>
<polygon points="-10.546204857720943 -87.86454533531763 -10.844359990098685 -90.34859201364311 -0.26495829273959864 -85.99291756413928 -9.651739460587716 -80.41240530034119 -9.949894592965459 -82.89645197866668" stroke-width="2.0" stroke="#4b9945" fill="#000000"/>
<polygon points="-88.42391569691922 -3.5513232332788633 -88.44308298014562 -3.0367477422699207 -83.44227757771016 -2.8650420078736403 -83.42419406327923 -3.350522042135829" stroke-width="2.0" stroke="#4b9945" fill="#000000"/>
<path d="M -10.024199742132017,-85.4070693421779 A 85.9933257531638,85.9933257531638 0 0 0 -85.93279278849583,-3.2260188559868777" stroke-width="5.0037523452157595" stroke="#7eff74" fill="none"/>
<polygon points="-10.546204857720943 -87.86454533531763 -10.844359990098685 -90.34859201364311 -0.26495829273959864 -85.99291756413928 -9.651739460587716 -80.41240530034119 -9.949894592965459 -82.89645197866668" stroke-width="1.0" stroke="none" fill="#7eff74"/>
<polygon points="-88.42391569691922 -3.5513232332788633 -88.44308298014562 -3.0367477422699207 -83.44227757771016 -2.8650420078736403 -83.42419406327923 -3.350522042135829" stroke-width="1.0" stroke="none" fill="#7eff74"/>
<path d="M 77.78454803021746,-36.66628099254869 A 85.9933257531638,85.9933257531638 0 0 0 48.10105879824636,-71.28211708821077" stroke-width="7.0037523452157595" stroke="#5e1010" fill="none"/>
<polygon points="79.94845157650285 -37.9426653571238 82.20869983497818 -39.01535459130224 81.44380072378104 -27.599989089758484 73.16770680107689 -34.72459765458848 75.4279550595522 -35.79728688876692" stroke-width="2.0" stroke="#5e1010" fill="#000000"/>
<polygon points="49.69246246067018 -73.22608782720806 49.26553798645489 -73.51399547561181 46.47993440712399 -69.35732009364233 46.882719444481715 -69.08569150375878" stroke-width="2.0" stroke="#5e1010" fill="#000000"/>
<path d="M 77.78454803021746,-36.66628099254869 A 85.9933257531638,85.9933257531638 0 0 0 48.10105879824636,-71.28211708821077" stroke-width="5.0037523452157595" stroke="#9d1b1c" fill="none"/>
<polygon points="79.94845157650285 -37.9426653571238 82.20869983497818 -39.01535459130224 81.44380072378104 -27.599989089758484 73.16770680107689 -34.72459765458848 75.4279550595522 -35.79728688876692" stroke-width="1.0" stroke="none" fill="#9d1b1c"/>
<polygon points="49.69246246067018 -73.22608782720806 49.26553798645489 -73.51399547561181 46.47993440712399 -69.35732009364233 46.882719444481715 -69.08569150375878" stroke-width="1.0" stroke="none" fill="#9d1b1c"/>
<path d="M 46.7767405720825,-72.15808073626845 A 85.9933257531638,85.9933257531638 0 0 0 46.397998087456116,-72.40219504660175" stroke-width="7.0037523452157595" stroke="#8c7d15" fill="none"/>
<polygon points="47.94287667403553 -74.38334047420379 49.29828508247848 -76.48625569583903 48.25703023009433 -71.17661910670881 43.87665144870668 -68.07459480929806 45.23205985714963 -70.1775100309333" stroke-width="2.0" stroke="#8c7d15" fill="#000000"/>
<polygon points="47.94287667403553 -74.38334047420379 47.85628034438391 -74.43908378992072 45.1503599125918 -70.23010147241662 45.23205985714963 -70.1775100309333" stroke-width="2.0" stroke="#8c7d15" fill="#000000"/>
<path d="M 46.7767405720825,-72.15808073626845 A 85.9933257531638,85.9933257531638 0 0 0 46.397998087456116,-72.40219504660175" stroke-width="5.0037523452157595" stroke="#e9d024" fill="none"/>
<polygon points="47.94287667403553 -74.38334047420379 49.29828508247848 -76.48625569583903 48.25703023009433 -71.17661910670881 43.87665144870668 -68.07459480929806 45.23205985714963 -70.1775100309333" stroke-width="1.0" stroke="none" fill="#e9d024"/>
<polygon points="47.94287667403553 -74.38334047420379 47.85628034438391 -74.43908378992072 45.1503599125918 -70.23010147241662 45.23205985714963 -70.1775100309333" stroke-width="1.0" stroke="none" fill="#e9d024"/>
<path d="M 81.39938811316213,-27.730699394219084 A 85.9933257531638,85.9933257531638 0 0 0 81.25296485587715,-28.156842440503457" stroke-width="7.0037523452157595" stroke="#8c7d15" fill="none"/>
<polygon points="83.6925465565209 -28.756884649900556 86.05864532230785 -29.569879738203383 81.9547576856915 -26.04361278258708 76.59425025916005 -26.317899384992067 78.96034902494699 -27.130894473294898" stroke-width="2.0" stroke="#8c7d15" fill="#000000"/>
<polygon points="83.6925465565209 -28.756884649900556 83.65902396119387 -28.854262661580762 78.92872188565978 -27.222766475115655 78.96034902494699 -27.130894473294898" stroke-width="2.0" stroke="#8c7d15" fill="#000000"/>
<path d="M 81.39938811316213,-27.730699394219084 A 85.9933257531638,85.9933257531638 0 0 0 81.25296485587715,-28.156842440503457" stroke-width="5.0037523452157595" stroke="#e9d024" fill="none"/>
<polygon points="83.6925465565209 -28.756884649900556 86.05864532230785 -29.569879738203383 81.9547576856915 -26.04361278258708 76.59425025916005 -26.317899384992067 78.96034902494699 -27.130894473294898" stroke-width="1.0" stroke="none" fill="#e9d024"/>
<polygon points="83.6925465565209 -28.756884649900556 83.65902396119387 -28.854262661580762 78.92872188565978 -27.222766475115655 78.96034902494699 -27.130894473294898" stroke-width="1.0" stroke="none" fill="#e9d024"/>
<text x="-35" y="-12.0"  font-weight="normal" font-style="roman" font-family="Arial" font-size="14.0" fill="#000000" >pICH41421</text>
<text x="-25" y="22.0"  font-weight="normal" font-style="roman" font-family="Arial" font-size="14.0" fill="#000000" >2514 bp</text>
</svg>

