<svg id="svgbox" width="341px" height="250px" xmlns="http://www.w3.org/2000/svg" version="1.1" preserveAspectRatio="xMidYMid meet" viewBox="-163 -133 341 250">
<line x1="79.74325283282002" y1="-55.87578048121942" x2="79.74325283282002" y2="-55.87578048121942" stroke-width="1.0" stroke="#6a993e"/>
<line x1="19.116204041066087" y1="-95.01897955955654" x2="19.116204041066087" y2="-95.01897955955654" stroke-width="1.0" stroke="#8c7d15"/>
<line x1="17.496326358604925" y1="-95.32175597482075" x2="17.496326358604925" y2="-114.32175597482075" stroke-width="1.0" stroke="#000000"/>
<line x1="96.63009782084033" y1="14.838688235787952" x2="96.63009782084033" y2="14.838688235787952" stroke-width="1.0" stroke="#8c7d15"/>
<line x1="96.50476979445878" y1="15.652246522557231" x2="96.50476979445878" y2="33.652246522557235" stroke-width="1.0" stroke="#000000"/>
<line x1="-12.033956853476361" y1="96.89952992980324" x2="-12.033956853476361" y2="96.89952992980324" stroke-width="1.0" stroke="#998f50"/>
<line x1="-79.1938830854662" y1="-55.418051086450234" x2="-79.1938830854662" y2="-55.418051086450234" stroke-width="1.0" stroke="#776a88"/>
<line x1="71.55361247425508" y1="-50.13733201518226" x2="79.74325283282002" y2="-55.87578048121942" stroke-width="1.0" stroke="#6a993e"/>
<line x1="17.14389232982605" y1="-85.21540946934422" x2="19.116204041066087" y2="-95.01897955955654" stroke-width="1.0" stroke="#8c7d15"/>
<line x1="15.690984140677504" y1="-85.48606893851418" x2="17.496326358604925" y2="-95.32175597482075" stroke-width="1.0" stroke="#000000"/>
<line x1="86.74595877042263" y1="13.320862411785802" x2="96.63009782084033" y2="14.838688235787952" stroke-width="1.0" stroke="#8c7d15"/>
<line x1="86.63376066825117" y1="14.051253446268008" x2="96.50476979445878" y2="15.652246522557231" stroke-width="1.0" stroke="#000000"/>
<line x1="-10.801524059575613" y1="86.97576504904764" x2="-12.033956853476361" y2="96.89952992980324" stroke-width="1.0" stroke="#998f50"/>
<line x1="-71.00070528069254" y1="-49.68465440914241" x2="-79.1938830854662" y2="-55.418051086450234" stroke-width="1.0" stroke="#776a88"/>
<ellipse cx="0.0" cy="0.0" rx="87.26604807296451" ry="87.26604807296451" stroke-width="3.0" stroke="#000000" fill="none"/>
<ellipse cx="0.0" cy="0.0" rx="87.26604807296451" ry="87.26604807296451" stroke-width="1.0" stroke="#ffffff" fill="none"/>
<line x1="0.0" y1="-1.3962567691674321" x2="0.0" y2="1.3962567691674321" stroke-width="3.0" stroke="#000000"/>
<line x1="-1.3962567691674321" y1="0.0" x2="1.3962567691674321" y2="0.0" stroke-width="3.0" stroke="#000000"/>
<line x1="0.0" y1="-1.3962567691674321" x2="0.0" y2="1.3962567691674321" stroke-width="1.0" stroke="#ffffff"/>
<line x1="-1.3962567691674321" y1="0.0" x2="1.3962567691674321" y2="0.0" stroke-width="1.0" stroke="#ffffff"/>
<path d="M 82.0 -74.0 C 117.0 -74.0, 82.0 -74.0, 117.0 -74.0 C 119.76142374915398 -74.0, 122.0 -71.76142374915396, 122.0 -69.0 C 122.0 -59.0, 122.0 -69.0, 122.0 -59.0 C 122.0 -56.23857625084603, 119.76142374915398 -54.0, 117.0 -54.0 C 82.0 -54.0, 117.0 -54.0, 82.0 -54.0 C 79.23857625084604 -54.0, 77.0 -56.23857625084603, 77.0 -59.0 C 77.0 -69.0, 77.0 -59.0, 77.0 -69.0 C 77.0 -71.76142374915396, 79.23857625084604 -74.0, 82.0 -74.0 z" stroke-width="2.0" stroke="#ffffff" fill="none"/>
<text x="80" y="-59.0"  font-weight="normal" font-style="roman" font-family="Arial" font-size="14.0" fill="#b1ff67" >EGFP</text>
<path d="M 21.0 -113.0 C 56.0 -113.0, 21.0 -113.0, 56.0 -113.0 C 58.76142374915397 -113.0, 61.0 -110.76142374915396, 61.0 -108.0 C 61.0 -98.0, 61.0 -108.0, 61.0 -98.0 C 61.0 -95.23857625084602, 58.76142374915397 -93.0, 56.0 -93.0 C 21.0 -93.0, 56.0 -93.0, 21.0 -93.0 C 18.23857625084603 -93.0, 16.0 -95.23857625084602, 16.0 -98.0 C 16.0 -108.0, 16.0 -98.0, 16.0 -108.0 C 16.0 -110.76142374915396, 18.23857625084603 -113.0, 21.0 -113.0 z" stroke-width="2.0" stroke="#ffffff" fill="none"/>
<text x="19" y="-98.0"  font-weight="normal" font-style="roman" font-family="Arial" font-size="14.0" fill="#e9d024" >AATG</text>
<path d="M 15.0 -131.0 C 88.0 -131.0, 15.0 -131.0, 88.0 -131.0 C 88.0 -113.0, 88.0 -131.0, 88.0 -113.0 C 15.0 -113.0, 88.0 -113.0, 15.0 -113.0 C 15.0 -131.0, 15.0 -113.0, 15.0 -131.0 z" stroke-width="1.0" stroke="#ffffff" fill="#ffffff"/>
<text x="17" y="-117.0"  font-weight="normal" font-style="roman" font-family="Arial" font-size="14.0" fill="#000000" >83 BsaI (2)</text>
<path d="M 99.0 13.0 C 134.0 13.0, 99.0 13.0, 134.0 13.0 C 136.76142374915398 13.0, 139.0 15.23857625084603, 139.0 18.0 C 139.0 28.0, 139.0 18.0, 139.0 28.0 C 139.0 30.76142374915397, 136.76142374915398 33.0, 134.0 33.0 C 99.0 33.0, 134.0 33.0, 99.0 33.0 C 96.23857625084604 33.0, 94.0 30.76142374915397, 94.0 28.0 C 94.0 18.0, 94.0 28.0, 94.0 18.0 C 94.0 15.23857625084603, 96.23857625084604 13.0, 99.0 13.0 z" stroke-width="2.0" stroke="#ffffff" fill="none"/>
<text x="97" y="28.0"  font-weight="normal" font-style="roman" font-family="Arial" font-size="14.0" fill="#e9d024" >GCTT</text>
<path d="M 95.0 33.0 C 176.0 33.0, 95.0 33.0, 176.0 33.0 C 176.0 51.0, 176.0 33.0, 176.0 51.0 C 95.0 51.0, 176.0 51.0, 95.0 51.0 C 95.0 33.0, 95.0 51.0, 95.0 33.0 z" stroke-width="1.0" stroke="#ffffff" fill="#ffffff"/>
<text x="97" y="47.0"  font-weight="normal" font-style="roman" font-family="Arial" font-size="14.0" fill="#000000" >816 BsaI (2)</text>
<path d="M -53.0 95.0 C -14.0 95.0, -53.0 95.0, -14.0 95.0 C -11.23857625084603 95.0, -9.0 97.23857625084604, -9.0 100.0 C -9.0 110.0, -9.0 100.0, -9.0 110.0 C -9.0 112.76142374915398, -11.23857625084603 115.0, -14.0 115.0 C -53.0 115.0, -14.0 115.0, -53.0 115.0 C -55.76142374915397 115.0, -58.0 112.76142374915398, -58.0 110.0 C -58.0 100.0, -58.0 110.0, -58.0 100.0 C -58.0 97.23857625084604, -55.76142374915397 95.0, -53.0 95.0 z" stroke-width="2.0" stroke="#ffffff" fill="none"/>
<text x="-55" y="110.0"  font-weight="normal" font-style="roman" font-family="Arial" font-size="14.0" fill="#ffef86" >SpecR</text>
<path d="M -157.0 -73.0 C -81.0 -73.0, -157.0 -73.0, -81.0 -73.0 C -78.23857625084604 -73.0, -76.0 -70.76142374915396, -76.0 -68.0 C -76.0 -58.0, -76.0 -68.0, -76.0 -58.0 C -76.0 -55.23857625084603, -78.23857625084604 -53.0, -81.0 -53.0 C -157.0 -53.0, -81.0 -53.0, -157.0 -53.0 C -159.76142374915398 -53.0, -162.0 -55.23857625084603, -162.0 -58.0 C -162.0 -68.0, -162.0 -58.0, -162.0 -68.0 C -162.0 -70.76142374915396, -159.76142374915398 -73.0, -157.0 -73.0 z" stroke-width="2.0" stroke="#ffffff" fill="none"/>
<text x="-159" y="-58.0"  font-weight="normal" font-style="roman" font-family="Arial" font-size="14.0" fill="#c7b0e3" >pBR322 ORI</text>
<path d="M 87.22883255761847,2.548316485037194 A 87.26604807296451,87.26604807296451 0 0 0 16.842145124973804,-85.62537762756011" stroke-width="7.0037523452157595" stroke="#6a993e" fill="none"/>
<polygon points="89.73620164747905 2.386281048367837 92.23719369568538 2.452787874121377 86.39677533038989 12.286592643328175 82.2332255028601 2.186760571107218 84.73421755106642 2.2532673968607577" stroke-width="2.0" stroke="#6a993e" fill="#000000"/>
<polygon points="17.55560584886957 -88.03454393951252 17.050538305121172 -88.13375838385889 16.100124538194294 -83.22109605026746 16.577039120539574 -83.12741191658326" stroke-width="2.0" stroke="#6a993e" fill="#000000"/>
<path d="M 87.22883255761847,2.548316485037194 A 87.26604807296451,87.26604807296451 0 0 0 16.842145124973804,-85.62537762756011" stroke-width="5.0037523452157595" stroke="#b1ff67" fill="none"/>
<polygon points="89.73620164747905 2.386281048367837 92.23719369568538 2.452787874121377 86.39677533038989 12.286592643328175 82.2332255028601 2.186760571107218 84.73421755106642 2.2532673968607577" stroke-width="1.0" stroke="none" fill="#b1ff67"/>
<polygon points="17.55560584886957 -88.03454393951252 17.050538305121172 -88.13375838385889 16.100124538194294 -83.22109605026746 16.577039120539574 -83.12741191658326" stroke-width="1.0" stroke="none" fill="#b1ff67"/>
<path d="M -77.19328575940479,40.700857238390284 A 87.26604807296451,87.26604807296451 0 0 0 70.27865990283922,51.73270830465009" stroke-width="7.0037523452157595" stroke="#998f50" fill="none"/>
<polygon points="-79.29628760867412 42.07587188450477 -81.50631412105822 43.2485471155992 -81.26035946532724 31.81378829750952 -72.6662080715218 38.557846191221465 -74.8762345839059 39.7305214223159" stroke-width="2.0" stroke="#998f50" fill="#000000"/>
<polygon points="72.15409921200468 53.40473939888676 72.45912911348387 52.990139002217155 68.42018602461359 50.03641656144532 68.13215878970728 50.427906724425135" stroke-width="2.0" stroke="#998f50" fill="#000000"/>
<path d="M -77.19328575940479,40.700857238390284 A 87.26604807296451,87.26604807296451 0 0 0 70.27865990283922,51.73270830465009" stroke-width="5.0037523452157595" stroke="#ffef86" fill="none"/>
<polygon points="-79.29628760867412 42.07587188450477 -81.50631412105822 43.2485471155992 -81.26035946532724 31.81378829750952 -72.6662080715218 38.557846191221465 -74.8762345839059 39.7305214223159" stroke-width="1.0" stroke="none" fill="#ffef86"/>
<polygon points="72.15409921200468 53.40473939888676 72.45912911348387 52.990139002217155 68.42018602461359 50.03641656144532 68.13215878970728 50.427906724425135" stroke-width="1.0" stroke="none" fill="#ffef86"/>
<path d="M -37.89713106274727,-78.60770066275892 A 87.26604807296451,87.26604807296451 0 0 0 -87.2639737919733,0.6016845575124622" stroke-width="7.0037523452157595" stroke="#776a88" fill="none"/>
<polygon points="-39.195480911445735 -80.75886638307472 -40.28787823031423 -83.00965568480689 -28.86937329468392 -82.35242820855463 -35.918288954840264 -74.00649847787821 -37.01068627370876 -76.25728777961038" stroke-width="2.0" stroke="#776a88" fill="#000000"/>
<polygon points="-89.76710297207546 0.38398874934311766 -89.76342556668116 0.898695662454401 -84.75992398224929 0.8486014827523095 -84.76339640545179 0.3625848389685625" stroke-width="2.0" stroke="#776a88" fill="#000000"/>
<path d="M -37.89713106274727,-78.60770066275892 A 87.26604807296451,87.26604807296451 0 0 0 -87.2639737919733,0.6016845575124622" stroke-width="5.0037523452157595" stroke="#c7b0e3" fill="none"/>
<polygon points="-39.195480911445735 -80.75886638307472 -40.28787823031423 -83.00965568480689 -28.86937329468392 -82.35242820855463 -35.918288954840264 -74.00649847787821 -37.01068627370876 -76.25728777961038" stroke-width="1.0" stroke="none" fill="#c7b0e3"/>
<polygon points="-89.76710297207546 0.38398874934311766 -89.76342556668116 0.898695662454401 -84.75992398224929 0.8486014827523095 -84.76339640545179 0.3625848389685625" stroke-width="1.0" stroke="none" fill="#c7b0e3"/>
<path d="M 15.907563281759533,-85.80391935517729 A 87.26604807296451,87.26604807296451 0 0 0 15.457741901893035,-85.8860952748896" stroke-width="7.0037523452157595" stroke="#8c7d15" fill="none"/>
<polygon points="16.13221846157503 -88.30646494377883 16.581831319614466 -90.76760952729047 17.6472239735194 -85.46308344719019 14.783379887456718 -80.92303119324393 15.232992745496155 -83.38417577675557" stroke-width="2.0" stroke="#8c7d15" fill="#000000"/>
<polygon points="16.13221846157503 -88.30646494377883 16.03093969876228 -88.32490699532873 15.137359360486263 -83.40158985022232 15.232992745496155 -83.38417577675557" stroke-width="2.0" stroke="#8c7d15" fill="#000000"/>
<path d="M 15.907563281759533,-85.80391935517729 A 87.26604807296451,87.26604807296451 0 0 0 15.457741901893035,-85.8860952748896" stroke-width="5.0037523452157595" stroke="#e9d024" fill="none"/>
<polygon points="16.13221846157503 -88.30646494377883 16.581831319614466 -90.76760952729047 17.6472239735194 -85.46308344719019 14.783379887456718 -80.92303119324393 15.232992745496155 -83.38417577675557" stroke-width="1.0" stroke="none" fill="#e9d024"/>
<polygon points="16.13221846157503 -88.30646494377883 16.03093969876228 -88.32490699532873 15.137359360486263 -83.40158985022232 15.232992745496155 -83.38417577675557" stroke-width="1.0" stroke="none" fill="#e9d024"/>
<path d="M 86.42605585589148,12.078907875602019 A 87.26604807296451,87.26604807296451 0 0 0 86.48816150614468,11.625879130628602" stroke-width="7.0037523452157595" stroke="#8c7d15" fill="none"/>
<polygon points="88.93616148338722 12.191776078967926 91.41485601897428 12.531566870947222 86.16291898440497 13.831649878442505 81.50007787662605 11.172403703030035 83.9787724122131 11.512194495009332" stroke-width="2.0" stroke="#8c7d15" fill="#000000"/>
<polygon points="88.93616148338722 12.191776078967926 88.95008429736612 12.089777783329428 83.99191915485378 11.41588168464075 83.9787724122131 11.512194495009332" stroke-width="2.0" stroke="#8c7d15" fill="#000000"/>
<path d="M 86.42605585589148,12.078907875602019 A 87.26604807296451,87.26604807296451 0 0 0 86.48816150614468,11.625879130628602" stroke-width="5.0037523452157595" stroke="#e9d024" fill="none"/>
<polygon points="88.93616148338722 12.191776078967926 91.41485601897428 12.531566870947222 86.16291898440497 13.831649878442505 81.50007787662605 11.172403703030035 83.9787724122131 11.512194495009332" stroke-width="1.0" stroke="none" fill="#e9d024"/>
<polygon points="88.93616148338722 12.191776078967926 88.95008429736612 12.089777783329428 83.99191915485378 11.41588168464075 83.9787724122131 11.512194495009332" stroke-width="1.0" stroke="none" fill="#e9d024"/>
<text x="-49" y="-12.0"  font-weight="normal" font-style="roman" font-family="Arial" font-size="14.0" fill="#000000" >pMC-6-EGFP-9</text>
<text x="-25" y="22.0"  font-weight="normal" font-style="roman" font-family="Arial" font-size="14.0" fill="#000000" >2968 bp</text>
</svg>

