<svg id="svgbox" width="393px" height="252px" xmlns="http://www.w3.org/2000/svg" version="1.1" preserveAspectRatio="xMidYMid meet" viewBox="-189 -137 393 252">
<line x1="98.55600050046125" y1="-9.22462707708853" x2="98.55600050046125" y2="-9.22462707708853" stroke-width="1.0" stroke="#8c7d15"/>
<line x1="1.6800611031687167" y1="-98.13751824903864" x2="1.6800611031687167" y2="-98.13751824903864" stroke-width="1.0" stroke="#000000"/>
<line x1="0.6910094496195991" y1="-98.14497062610222" x2="0.6910094496195991" y2="-117.14497062610222" stroke-width="1.0" stroke="#4b9945"/>
<line x1="65.6742613160442" y1="74.36543638663994" x2="65.6742613160442" y2="74.36543638663994" stroke-width="1.0" stroke="#008651"/>
<line x1="-96.5420905652094" y1="18.149826783470786" x2="-96.5420905652094" y2="18.149826783470786" stroke-width="1.0" stroke="#0c7371"/>
<line x1="-96.08771983582378" y1="20.47942489706771" x2="-96.08771983582378" y2="37.47942489706771" stroke-width="1.0" stroke="#4b9945"/>
<line x1="-95.79681799336923" y1="21.833064731121794" x2="-95.79681799336923" y2="55.833064731121794" stroke-width="1.0" stroke="#000000"/>
<line x1="-74.56971897740006" y1="64.41728914096312" x2="-74.56971897740006" y2="75.41728914096312" stroke-width="1.0" stroke="#5c5c5c"/>
<line x1="-26.72094837710696" y1="95.21503598987447" x2="-26.72094837710696" y2="95.21503598987447" stroke-width="1.0" stroke="#4b9945"/>
<line x1="-75.82422268578904" y1="-62.030890035244184" x2="-75.82422268578904" y2="-62.030890035244184" stroke-width="1.0" stroke="#8c7d15"/>
<line x1="-2.671395615738683" y1="-98.09608820580279" x2="-2.671395615738683" y2="-98.09608820580279" stroke-width="1.0" stroke="#2e7319"/>
<line x1="88.59951754549883" y1="-8.292721949115252" x2="98.55600050046125" y2="-9.22462707708853" stroke-width="1.0" stroke="#8c7d15"/>
<line x1="1.5088916060604185" y1="-88.13898330619527" x2="1.6800611031687167" y2="-98.13751824903864" stroke-width="1.0" stroke="#000000"/>
<line x1="0.6206041788585877" y1="-88.14521847428121" x2="0.6910094496195991" y2="-98.14497062610222" stroke-width="1.0" stroke="#4b9945"/>
<line x1="59.054775647187746" y1="66.86994377575678" x2="65.6742613160442" y2="74.36543638663994" stroke-width="1.0" stroke="#008651"/>
<line x1="-86.7142583157212" y1="16.30220309994659" x2="-96.5420905652094" y2="18.149826783470786" stroke-width="1.0" stroke="#0c7371"/>
<line x1="-86.30739104547514" y1="18.394918060264835" x2="-96.08771983582378" y2="20.47942489706771" stroke-width="1.0" stroke="#4b9945"/>
<line x1="-86.04683426640993" y1="19.610944724454967" x2="-95.79681799336923" y2="21.833064731121794" stroke-width="1.0" stroke="#000000"/>
<line x1="-67.00230060404252" y1="57.88015068728397" x2="-74.56971897740006" y2="64.41728914096312" stroke-width="1.0" stroke="#5c5c5c"/>
<line x1="-24.018954310919337" y1="85.58699215603745" x2="-26.72094837710696" y2="95.21503598987447" stroke-width="1.0" stroke="#4b9945"/>
<line x1="-68.08429398994019" y1="-55.698946906695454" x2="-75.82422268578904" y2="-62.030890035244184" stroke-width="1.0" stroke="#8c7d15"/>
<line x1="-2.3991721607434124" y1="-88.0997941729849" x2="-2.671395615738683" y2="-98.09608820580279" stroke-width="1.0" stroke="#2e7319"/>
<ellipse cx="0.0" cy="0.0" rx="88.58833831566868" ry="88.58833831566868" stroke-width="3.0" stroke="#000000" fill="none"/>
<ellipse cx="0.0" cy="0.0" rx="88.58833831566868" ry="88.58833831566868" stroke-width="1.0" stroke="#ffffff" fill="none"/>
<line x1="0.0" y1="-1.417413413050699" x2="0.0" y2="1.417413413050699" stroke-width="3.0" stroke="#000000"/>
<line x1="-1.417413413050699" y1="0.0" x2="1.417413413050699" y2="0.0" stroke-width="3.0" stroke="#000000"/>
<line x1="0.0" y1="-1.417413413050699" x2="0.0" y2="1.417413413050699" stroke-width="1.0" stroke="#ffffff"/>
<line x1="-1.417413413050699" y1="0.0" x2="1.417413413050699" y2="0.0" stroke-width="1.0" stroke="#ffffff"/>
<path d="M 101.0 -27.0 C 197.0 -27.0, 101.0 -27.0, 197.0 -27.0 C 199.76142374915395 -27.0, 202.0 -24.76142374915397, 202.0 -22.0 C 202.0 -12.0, 202.0 -22.0, 202.0 -12.0 C 202.0 -9.23857625084603, 199.76142374915395 -7.0, 197.0 -7.0 C 101.0 -7.0, 197.0 -7.0, 101.0 -7.0 C 98.23857625084604 -7.0, 96.0 -9.23857625084603, 96.0 -12.0 C 96.0 -22.0, 96.0 -12.0, 96.0 -22.0 C 96.0 -24.76142374915397, 98.23857625084604 -27.0, 101.0 -27.0 z" stroke-width="2.0" stroke="#ffffff" fill="none"/>
<path d="M 0.0 -115.0 C 65.0 -115.0, 0.0 -115.0, 65.0 -115.0 C 65.0 -97.0, 65.0 -115.0, 65.0 -97.0 C 0.0 -97.0, 65.0 -97.0, 0.0 -97.0 C 0.0 -115.0, 0.0 -97.0, 0.0 -115.0 z" stroke-width="1.0" stroke="#ffffff" fill="#ffffff"/>
<text x="2" y="-101.0"  font-weight="normal" font-style="roman" font-family="Arial" font-size="14.0" fill="#000000" >6 BsaI (2)</text>
<path d="M 3.0 -135.0 C 38.0 -135.0, 3.0 -135.0, 38.0 -135.0 C 40.76142374915397 -135.0, 43.0 -132.76142374915398, 43.0 -130.0 C 43.0 -120.0, 43.0 -130.0, 43.0 -120.0 C 43.0 -117.23857625084602, 40.76142374915397 -115.0, 38.0 -115.0 C 3.0 -115.0, 38.0 -115.0, 3.0 -115.0 C 0.23857625084603207 -115.0, -2.0 -117.23857625084602, -2.0 -120.0 C -2.0 -130.0, -2.0 -120.0, -2.0 -130.0 C -2.0 -132.76142374915398, 0.23857625084603207 -135.0, 3.0 -135.0 z" stroke-width="2.0" stroke="#ffffff" fill="none"/>
<text x="1" y="-120.0"  font-weight="normal" font-style="roman" font-family="Arial" font-size="14.0" fill="#7eff74" >GCTT</text>
<path d="M 68.0 72.0 C 104.0 72.0, 68.0 72.0, 104.0 72.0 C 106.76142374915398 72.0, 109.0 74.23857625084604, 109.0 77.0 C 109.0 87.0, 109.0 77.0, 109.0 87.0 C 109.0 89.76142374915398, 106.76142374915398 92.0, 104.0 92.0 C 68.0 92.0, 104.0 92.0, 68.0 92.0 C 65.23857625084604 92.0, 63.0 89.76142374915398, 63.0 87.0 C 63.0 77.0, 63.0 87.0, 63.0 77.0 C 63.0 74.23857625084604, 65.23857625084604 72.0, 68.0 72.0 z" stroke-width="2.0" stroke="#ffffff" fill="none"/>
<text x="66" y="87.0"  font-weight="normal" font-style="roman" font-family="Arial" font-size="14.0" fill="#00df87" >G\to\A</text>
<path d="M -183.0 16.0 C -99.0 16.0, -183.0 16.0, -99.0 16.0 C -96.23857625084604 16.0, -94.0 18.23857625084603, -94.0 21.0 C -94.0 31.0, -94.0 21.0, -94.0 31.0 C -94.0 33.76142374915397, -96.23857625084604 36.0, -99.0 36.0 C -183.0 36.0, -99.0 36.0, -183.0 36.0 C -185.76142374915398 36.0, -188.0 33.76142374915397, -188.0 31.0 C -188.0 21.0, -188.0 31.0, -188.0 21.0 C -188.0 18.23857625084603, -185.76142374915398 16.0, -183.0 16.0 z" stroke-width="2.0" stroke="#ffffff" fill="none"/>
<text x="-185" y="31.0"  font-weight="normal" font-style="roman" font-family="Arial" font-size="14.0" fill="#14c0bd" >CmWOX11_F</text>
<path d="M -133.0 35.0 C -98.0 35.0, -133.0 35.0, -98.0 35.0 C -95.23857625084602 35.0, -93.0 37.23857625084603, -93.0 40.0 C -93.0 50.0, -93.0 40.0, -93.0 50.0 C -93.0 52.76142374915397, -95.23857625084602 55.0, -98.0 55.0 C -133.0 55.0, -98.0 55.0, -133.0 55.0 C -135.76142374915398 55.0, -138.0 52.76142374915397, -138.0 50.0 C -138.0 40.0, -138.0 50.0, -138.0 40.0 C -138.0 37.23857625084603, -135.76142374915398 35.0, -133.0 35.0 z" stroke-width="2.0" stroke="#ffffff" fill="none"/>
<text x="-135" y="50.0"  font-weight="normal" font-style="roman" font-family="Arial" font-size="14.0" fill="#7eff74" >AATG</text>
<path d="M -183.0 55.0 C -94.0 55.0, -183.0 55.0, -94.0 55.0 C -94.0 73.0, -94.0 55.0, -94.0 73.0 C -183.0 73.0, -94.0 73.0, -183.0 73.0 C -183.0 55.0, -183.0 73.0, -183.0 55.0 z" stroke-width="1.0" stroke="#ffffff" fill="#ffffff"/>
<text x="-181" y="69.0"  font-weight="normal" font-style="roman" font-family="Arial" font-size="14.0" fill="#000000" >2241 BsaI (2)</text>
<path d="M -98.0 73.0 C -77.0 73.0, -98.0 73.0, -77.0 73.0 C -74.23857625084602 73.0, -72.0 75.23857625084604, -72.0 78.0 C -72.0 88.0, -72.0 78.0, -72.0 88.0 C -72.0 90.76142374915398, -74.23857625084602 93.0, -77.0 93.0 C -98.0 93.0, -77.0 93.0, -98.0 93.0 C -100.76142374915396 93.0, -103.0 90.76142374915398, -103.0 88.0 C -103.0 78.0, -103.0 88.0, -103.0 78.0 C -103.0 75.23857625084604, -100.76142374915396 73.0, -98.0 73.0 z" stroke-width="2.0" stroke="#ffffff" fill="none"/>
<text x="-100" y="88.0"  font-weight="normal" font-style="roman" font-family="Arial" font-size="14.0" fill="#999999" >ORI</text>
<path d="M -96.0 93.0 C -29.0 93.0, -96.0 93.0, -29.0 93.0 C -26.238576250846037 93.0, -24.0 95.23857625084604, -24.0 98.0 C -24.0 108.0, -24.0 98.0, -24.0 108.0 C -24.0 110.76142374915398, -26.238576250846037 113.0, -29.0 113.0 C -96.0 113.0, -29.0 113.0, -96.0 113.0 C -98.76142374915396 113.0, -101.0 110.76142374915398, -101.0 108.0 C -101.0 98.0, -101.0 108.0, -101.0 98.0 C -101.0 95.23857625084604, -98.76142374915396 93.0, -96.0 93.0 z" stroke-width="2.0" stroke="#ffffff" fill="none"/>
<text x="-98" y="108.0"  font-weight="normal" font-style="roman" font-family="Arial" font-size="14.0" fill="#7eff74" >rep\(pMB1)</text>
<path d="M -145.0 -80.0 C -78.0 -80.0, -145.0 -80.0, -78.0 -80.0 C -75.23857625084604 -80.0, -73.0 -77.76142374915396, -73.0 -75.0 C -73.0 -65.0, -73.0 -75.0, -73.0 -65.0 C -73.0 -62.23857625084603, -75.23857625084604 -60.0, -78.0 -60.0 C -145.0 -60.0, -78.0 -60.0, -145.0 -60.0 C -147.76142374915398 -60.0, -150.0 -62.23857625084603, -150.0 -65.0 C -150.0 -75.0, -150.0 -65.0, -150.0 -75.0 C -150.0 -77.76142374915396, -147.76142374915398 -80.0, -145.0 -80.0 z" stroke-width="2.0" stroke="#ffffff" fill="none"/>
<text x="-147" y="-65.0"  font-weight="normal" font-style="roman" font-family="Arial" font-size="14.0" fill="#e9d024" >CmWOX11</text>
<path d="M -90.0 -116.0 C -5.0 -116.0, -90.0 -116.0, -5.0 -116.0 C -2.2385762508460374 -116.0, 0.0 -113.76142374915396, 0.0 -111.0 C 0.0 -101.0, 0.0 -111.0, 0.0 -101.0 C 0.0 -98.23857625084602, -2.2385762508460374 -96.0, -5.0 -96.0 C -90.0 -96.0, -5.0 -96.0, -90.0 -96.0 C -92.76142374915396 -96.0, -95.0 -98.23857625084602, -95.0 -101.0 C -95.0 -111.0, -95.0 -101.0, -95.0 -111.0 C -95.0 -113.76142374915396, -92.76142374915396 -116.0, -90.0 -116.0 z" stroke-width="2.0" stroke="#ffffff" fill="none"/>
<text x="-92" y="-101.0"  font-weight="normal" font-style="roman" font-family="Arial" font-size="14.0" fill="#4ec02b" >CmWOX11_R</text>
<path d="M 61.52355746291048,63.73967024263087 A 88.58833831566868,88.58833831566868 0 0 0 39.55471749695036,-79.26738301008695" stroke-width="7.0037523452157595" stroke="#8c7d15" fill="none"/>
<polygon points="63.43253083932831 65.3738572124813 65.17476339818955 67.16941007828804 54.130143907908355 70.12717879710051 58.20583316274456 59.98719861506104 59.94806572160581 61.78275148086779" stroke-width="2.0" stroke="#8c7d15" fill="#000000"/>
<polygon points="40.885132275546525 -81.39922072312052 40.42471373053475 -81.6288533260424 38.20411015340877 -77.14483088123824 38.63923706432653 -76.92781241784674" stroke-width="2.0" stroke="#8c7d15" fill="#000000"/>
<path d="M 61.52355746291048,63.73967024263087 A 88.58833831566868,88.58833831566868 0 0 0 39.55471749695036,-79.26738301008695" stroke-width="5.0037523452157595" stroke="#e9d024" fill="none"/>
<polygon points="63.43253083932831 65.3738572124813 65.17476339818955 67.16941007828804 54.130143907908355 70.12717879710051 58.20583316274456 59.98719861506104 59.94806572160581 61.78275148086779" stroke-width="1.0" stroke="none" fill="#e9d024"/>
<polygon points="40.885132275546525 -81.39922072312052 40.42471373053475 -81.6288533260424 38.20411015340877 -77.14483088123824 38.63923706432653 -76.92781241784674" stroke-width="1.0" stroke="none" fill="#e9d024"/>
<path d="M 59.14844222488191,65.94964342512534 A 88.58833831566868,88.58833831566868 0 0 0 59.4931990144768,65.63880678802158" stroke-width="7.0037523452157595" stroke="#008651" fill="none"/>
<polygon points="60.99665589145308 67.65231071870265 62.67198491379531 69.51044339694737 57.819807363760184 67.11753542815049 55.97066882442639 62.07791268396851 57.64599784676862 63.93604536221323" stroke-width="2.0" stroke="#008651" fill="#000000"/>
<polygon points="60.99665589145308 67.65231071870265 61.07304132757082 67.58336184684109 57.71818729095395 63.870883978186825 57.64599784676862 63.93604536221323" stroke-width="2.0" stroke="#008651" fill="#000000"/>
<path d="M 59.14844222488191,65.94964342512534 A 88.58833831566868,88.58833831566868 0 0 0 59.4931990144768,65.63880678802158" stroke-width="5.0037523452157595" stroke="#00df87" fill="none"/>
<polygon points="60.99665589145308 67.65231071870265 62.67198491379531 69.51044339694737 57.819807363760184 67.11753542815049 55.97066882442639 62.07791268396851 57.64599784676862 63.93604536221323" stroke-width="1.0" stroke="none" fill="#00df87"/>
<polygon points="60.99665589145308 67.65231071870265 61.07304132757082 67.58336184684109 57.71818729095395 63.870883978186825 57.64599784676862 63.93604536221323" stroke-width="1.0" stroke="none" fill="#00df87"/>
<path d="M -68.20627905745185,56.53138228159981 A 88.58833831566868,88.58833831566868 0 0 0 -67.90912454363243,56.887999518780695" stroke-width="7.0037523452157595" stroke="#5c5c5c" fill="none"/>
<polygon points="-66.13569202535997 55.10852206905368 -66.19790392033974 55.03377581869254 -70.04563919420089 58.23259916400826 -69.97981124963962 58.311690019969745" stroke-width="2.0" stroke="#5c5c5c" fill="#000000"/>
<polygon points="-66.13569202535997 55.10852206905368 -64.21363241322015 53.50693809359564 -66.75922394765254 58.233149523605086 -71.90187086177944 59.91327399542778 -69.97981124963962 58.311690019969745" stroke-width="2.0" stroke="#5c5c5c" fill="#000000"/>
<path d="M -68.20627905745185,56.53138228159981 A 88.58833831566868,88.58833831566868 0 0 0 -67.90912454363243,56.887999518780695" stroke-width="5.0037523452157595" stroke="#999999" fill="none"/>
<polygon points="-66.13569202535997 55.10852206905368 -66.19790392033974 55.03377581869254 -70.04563919420089 58.23259916400826 -69.97981124963962 58.311690019969745" stroke-width="1.0" stroke="none" fill="#999999"/>
<polygon points="-66.13569202535997 55.10852206905368 -64.21363241322015 53.50693809359564 -66.75922394765254 58.233149523605086 -71.90187086177944 59.91327399542778 -69.97981124963962 58.311690019969745" stroke-width="1.0" stroke="none" fill="#999999"/>
<path d="M -62.5877117524222,62.69507176108089 A 88.58833831566868,88.58833831566868 0 0 0 28.900902383058355,83.74145644169502" stroke-width="7.0037523452157595" stroke="#4b9945" fill="none"/>
<polygon points="-64.18595618868719 64.63428040648522 -65.9488822648487 66.40952011791936 -69.11101616597857 55.42166661186959 -58.89717796020258 59.308561272182814 -60.66010403636412 61.08380098361695" stroke-width="2.0" stroke="#4b9945" fill="#000000"/>
<polygon points="29.49178018683173 86.18388525085086 29.97810126949305 86.01593236021014 28.33134925145222 81.29091962759972 27.87174267672751 81.44964655829347" stroke-width="2.0" stroke="#4b9945" fill="#000000"/>
<path d="M -62.5877117524222,62.69507176108089 A 88.58833831566868,88.58833831566868 0 0 0 28.900902383058355,83.74145644169502" stroke-width="5.0037523452157595" stroke="#7eff74" fill="none"/>
<polygon points="-64.18595618868719 64.63428040648522 -65.9488822648487 66.40952011791936 -69.11101616597857 55.42166661186959 -58.89717796020258 59.308561272182814 -60.66010403636412 61.08380098361695" stroke-width="1.0" stroke="none" fill="#7eff74"/>
<polygon points="29.49178018683173 86.18388525085086 29.97810126949305 86.01593236021014 28.33134925145222 81.29091962759972 27.87174267672751 81.44964655829347" stroke-width="1.0" stroke="none" fill="#7eff74"/>
<path d="M -86.58315977691421,18.74166824422835 A 88.58833831566868,88.58833831566868 0 0 0 -86.48376687882752,19.195097081806768" stroke-width="7.0037523452157595" stroke="#4b9945" fill="none"/>
<polygon points="-88.97755662329557 19.504399320882982 -91.42140671260832 20.040105512772854 -86.94015013369517 17.00893824616675 -81.64600635535734 17.89728074521336 -84.08985644467008 18.432986937103234" stroke-width="2.0" stroke="#4b9945" fill="#000000"/>
<polygon points="-88.97755662329557 19.504399320882982 -88.95546643843943 19.604901587100727 -84.06897971413395 18.527968429732823 -84.08985644467008 18.432986937103234" stroke-width="2.0" stroke="#4b9945" fill="#000000"/>
<path d="M -86.58315977691421,18.74166824422835 A 88.58833831566868,88.58833831566868 0 0 0 -86.48376687882752,19.195097081806768" stroke-width="5.0037523452157595" stroke="#7eff74" fill="none"/>
<polygon points="-88.97755662329557 19.504399320882982 -91.42140671260832 20.040105512772854 -86.94015013369517 17.00893824616675 -81.64600635535734 17.89728074521336 -84.08985644467008 18.432986937103234" stroke-width="1.0" stroke="none" fill="#7eff74"/>
<polygon points="-88.97755662329557 19.504399320882982 -88.95546643843943 19.604901587100727 -84.06897971413395 18.527968429732823 -84.08985644467008 18.432986937103234" stroke-width="1.0" stroke="none" fill="#7eff74"/>
<path d="M -9.981738479469541,-88.02419316562265 A 88.58833831566868,88.58833831566868 0 0 0 -86.91888502586288,17.117275232705733" stroke-width="7.0037523452157595" stroke="#8c7d15" fill="none"/>
<polygon points="-10.500864660368844 -90.48292113379655 -10.789280526256812 -92.96811743818925 -0.2276998245976547 -88.58804568518966 -9.635617062704943 -83.02733222061845 -9.92403292859291 -85.51252852501115" stroke-width="2.0" stroke="#8c7d15" fill="#000000"/>
<polygon points="-89.41937054125604 17.366731054685577 -89.31985182579066 17.87152050999102 -84.41334874465953 16.88980515047841 -84.5074007147813 16.41274470465016" stroke-width="2.0" stroke="#8c7d15" fill="#000000"/>
<path d="M -9.981738479469541,-88.02419316562265 A 88.58833831566868,88.58833831566868 0 0 0 -86.91888502586288,17.117275232705733" stroke-width="5.0037523452157595" stroke="#e9d024" fill="none"/>
<polygon points="-10.500864660368844 -90.48292113379655 -10.789280526256812 -92.96811743818925 -0.2276998245976547 -88.58804568518966 -9.635617062704943 -83.02733222061845 -9.92403292859291 -85.51252852501115" stroke-width="1.0" stroke="none" fill="#e9d024"/>
<polygon points="-89.41937054125604 17.366731054685577 -89.31985182579066 17.87152050999102 -84.41334874465953 16.88980515047841 -84.5074007147813 16.41274470465016" stroke-width="1.0" stroke="none" fill="#e9d024"/>
<path d="M 0.41490424361610445,-88.5873667065457 A 88.58833831566868,88.58833831566868 0 0 0 -0.049289402797685046,-88.5883246036753" stroke-width="7.0037523452157595" stroke="#2e7319" fill="none"/>
<polygon points="0.1775312406706432 -86.08627908654913 0.48698702206855454 -86.08508470082943 0.5152930111068273 -91.08875698258778 0.18785019605271658 -91.09002079165462" stroke-width="2.0" stroke="#2e7319" fill="#000000"/>
<polygon points="0.1775312406706432 -86.08627908654913 0.1723717629796065 -83.58440823399638 -6.181319175647179 -88.37242204885044 0.19300967374375327 -93.59189164420737 0.18785019605271658 -91.09002079165462" stroke-width="2.0" stroke="#2e7319" fill="#000000"/>
<path d="M 0.41490424361610445,-88.5873667065457 A 88.58833831566868,88.58833831566868 0 0 0 -0.049289402797685046,-88.5883246036753" stroke-width="5.0037523452157595" stroke="#4ec02b" fill="none"/>
<polygon points="0.1775312406706432 -86.08627908654913 0.48698702206855454 -86.08508470082943 0.5152930111068273 -91.08875698258778 0.18785019605271658 -91.09002079165462" stroke-width="1.0" stroke="none" fill="#4ec02b"/>
<polygon points="0.1775312406706432 -86.08627908654913 0.1723717629796065 -83.58440823399638 -6.181319175647179 -88.37242204885044 0.19300967374375327 -93.59189164420737 0.18785019605271658 -91.09002079165462" stroke-width="1.0" stroke="none" fill="#4ec02b"/>
<path d="M -0.5408312050851931,-88.58668741486487 A 88.58833831566868,88.58833831566868 0 0 0 -1.005008171452082,-88.58263737384819" stroke-width="7.0037523452157595" stroke="#4b9945" fill="none"/>
<polygon points="-0.7948724460702424 -91.08674630984855 -0.8167043458440828 -93.58852722575931 1.228411210778014 -88.57982101714028 -0.7293767467487211 -83.58140356211624 -0.7512086465225616 -86.08318447802701" stroke-width="2.0" stroke="#4b9945" fill="#000000"/>
<polygon points="-0.7948724460702424 -91.08674630984855 -0.8977693251993548 -91.08579025160269 -0.8484532115897289 -86.08228093781196 -0.7512086465225616 -86.08318447802701" stroke-width="2.0" stroke="#4b9945" fill="#000000"/>
<path d="M -0.5408312050851931,-88.58668741486487 A 88.58833831566868,88.58833831566868 0 0 0 -1.005008171452082,-88.58263737384819" stroke-width="5.0037523452157595" stroke="#7eff74" fill="none"/>
<polygon points="-0.7948724460702424 -91.08674630984855 -0.8167043458440828 -93.58852722575931 1.228411210778014 -88.57982101714028 -0.7293767467487211 -83.58140356211624 -0.7512086465225616 -86.08318447802701" stroke-width="1.0" stroke="none" fill="#7eff74"/>
<polygon points="-0.7948724460702424 -91.08674630984855 -0.8977693251993548 -91.08579025160269 -0.8484532115897289 -86.08228093781196 -0.7512086465225616 -86.08318447802701" stroke-width="1.0" stroke="none" fill="#7eff74"/>
<path d="M -86.80950470912202,17.6636230057226 A 88.58833831566868,88.58833831566868 0 0 0 -86.71575754087092,18.11825266531682" stroke-width="7.0037523452157595" stroke="#0c7371" fill="none"/>
<polygon points="-89.21320062840351 18.396521659173867 -91.66352289614846 18.901798976353483 -87.53766241539243 13.603357834746637 -81.86223382516862 16.88068970763503 -84.31255609291358 17.385967024814644" stroke-width="2.0" stroke="#0c7371" fill="#000000"/>
<polygon points="-89.21320062840351 18.396521659173867 -89.16768352919199 18.61589078067696 -84.26953933134213 17.59328579862281 -84.31255609291358 17.385967024814644" stroke-width="2.0" stroke="#0c7371" fill="#000000"/>
<path d="M -86.80950470912202,17.6636230057226 A 88.58833831566868,88.58833831566868 0 0 0 -86.71575754087092,18.11825266531682" stroke-width="5.0037523452157595" stroke="#14c0bd" fill="none"/>
<polygon points="-89.21320062840351 18.396521659173867 -91.66352289614846 18.901798976353483 -87.53766241539243 13.603357834746637 -81.86223382516862 16.88068970763503 -84.31255609291358 17.385967024814644" stroke-width="1.0" stroke="none" fill="#14c0bd"/>
<polygon points="-89.21320062840351 18.396521659173867 -89.16768352919199 18.61589078067696 -84.26953933134213 17.59328579862281 -84.31255609291358 17.385967024814644" stroke-width="1.0" stroke="none" fill="#14c0bd"/>
<text x="-54" y="-28.0"  font-weight="normal" font-style="roman" font-family="Arial" font-size="14.0" fill="#000000" >New_Golden_Gate</text>
<text x="-25" y="22.0"  font-weight="normal" font-style="roman" font-family="Arial" font-size="14.0" fill="#000000" >3133 bp</text>
<text x="99" y="-12.0"  font-weight="normal" font-style="roman" font-family="Arial" font-size="14.0" fill="#e9d024" >Sm/Sp\no\DraIII</text>
</svg>

