<svg id="svgbox" width="304px" height="256px" xmlns="http://www.w3.org/2000/svg" version="1.1" preserveAspectRatio="xMidYMid meet" viewBox="-132 -139 304 256">
<line x1="97.26762031668257" y1="-29.38015559943576" x2="97.26762031668257" y2="-29.38015559943576" stroke-width="1.0" stroke="#6a993e"/>
<line x1="80.32943063381165" y1="-61.85659821904655" x2="80.32943063381165" y2="-61.85659821904655" stroke-width="1.0" stroke="#8c7d15"/>
<line x1="77.67364433794357" y1="-65.11879404891964" x2="77.67364433794357" y2="-81.11879404891964" stroke-width="1.0" stroke="#997f17"/>
<line x1="43.35198609405546" y1="-91.31814660708739" x2="43.35198609405546" y2="-100.31814660708739" stroke-width="1.0" stroke="#1f4286"/>
<line x1="5.945245717739978" y1="-100.69929537812494" x2="5.945245717739978" y2="-118.69929537812494" stroke-width="1.0" stroke="#8c7d15"/>
<line x1="101.5300420697185" y1="7.295796071104946" x2="101.5300420697185" y2="7.295796071104946" stroke-width="1.0" stroke="#8c7d15"/>
<line x1="99.69717108747494" y1="20.80183110145002" x2="99.69717108747494" y2="25.80183110145002" stroke-width="1.0" stroke="#5e1010"/>
<line x1="96.03414397800165" y1="34.03570439116874" x2="96.03414397800165" y2="45.03570439116874" stroke-width="1.0" stroke="#8c7d15"/>
<line x1="92.45438795112834" y1="42.871602340383674" x2="92.45438795112834" y2="63.871602340383674" stroke-width="1.0" stroke="#4b9945"/>
<line x1="30.457613267916845" y1="97.21692959287434" x2="30.457613267916845" y2="97.21692959287434" stroke-width="1.0" stroke="#4b9945"/>
<line x1="-76.30214028580967" y1="66.56789473601013" x2="-76.30214028580967" y2="66.56789473601013" stroke-width="1.0" stroke="#4b9945"/>
<line x1="-47.68061184423969" y1="89.59364135183993" x2="-47.68061184423969" y2="89.59364135183993" stroke-width="1.0" stroke="#5c5c5c"/>
<line x1="-99.98013125353027" y1="-12.776486912025893" x2="-99.98013125353027" y2="-12.776486912025893" stroke-width="1.0" stroke="#8c7d15"/>
<line x1="-47.40586579327793" y1="-88.82863252254192" x2="-47.40586579327793" y2="-88.82863252254192" stroke-width="1.0" stroke="#5c5c5c"/>
<line x1="-7.0835843627071196" y1="-100.56712926433688" x2="-7.0835843627071196" y2="-107.56712926433688" stroke-width="1.0" stroke="#4b9945"/>
<line x1="87.69478840517331" y1="-26.48863537747811" x2="97.26762031668257" y2="-29.38015559943576" stroke-width="1.0" stroke="#6a993e"/>
<line x1="72.40627714715683" y1="-55.75548038483703" x2="80.32943063381165" y2="-61.85659821904655" stroke-width="1.0" stroke="#8c7d15"/>
<line x1="70.01042512561642" y1="-58.69422625771219" x2="77.67364433794357" y2="-65.11879404891964" stroke-width="1.0" stroke="#997f17"/>
<line x1="39.06336597244832" y1="-82.28444650953344" x2="43.35198609405546" y2="-91.31814660708739" stroke-width="1.0" stroke="#1f4286"/>
<line x1="5.355876039336709" y1="-90.71667831734479" x2="5.945245717739978" y2="-100.69929537812494" stroke-width="1.0" stroke="#8c7d15"/>
<line x1="91.5557607278601" y1="6.579059220192819" x2="101.5300420697185" y2="7.295796071104946" stroke-width="1.0" stroke="#8c7d15"/>
<line x1="89.90798661209587" y1="18.75931615487141" x2="99.69717108747494" y2="20.80183110145002" stroke-width="1.0" stroke="#5e1010"/>
<line x1="86.60860123446702" y1="30.69517389590284" x2="96.03414397800165" y2="34.03570439116874" stroke-width="1.0" stroke="#8c7d15"/>
<line x1="83.38228858538308" y1="38.66482054213879" x2="92.45438795112834" y2="42.871602340383674" stroke-width="1.0" stroke="#4b9945"/>
<line x1="27.467949511815224" y1="87.67429313194529" x2="30.457613267916845" y2="97.21692959287434" stroke-width="1.0" stroke="#4b9945"/>
<line x1="-68.76676542398422" y1="59.99384532246227" x2="-76.30214028580967" y2="66.56789473601013" stroke-width="1.0" stroke="#4b9945"/>
<line x1="-42.98260676512389" y1="80.76591524164586" x2="-47.68061184423969" y2="89.59364135183993" stroke-width="1.0" stroke="#5c5c5c"/>
<line x1="-90.06079637195589" y1="-11.508892534008291" x2="-99.98013125353027" y2="-12.776486912025893" stroke-width="1.0" stroke="#8c7d15"/>
<line x1="-42.697617885898985" y1="-80.00636514716376" x2="-47.40586579327793" y2="-88.82863252254192" stroke-width="1.0" stroke="#5c5c5c"/>
<line x1="-6.380961378968835" y1="-90.5918437575094" x2="-7.0835843627071196" y2="-100.56712926433688" stroke-width="1.0" stroke="#4b9945"/>
<ellipse cx="0.0" cy="0.0" rx="91.30474480323828" ry="91.30474480323828" stroke-width="3.0" stroke="#000000" fill="none"/>
<ellipse cx="0.0" cy="0.0" rx="91.30474480323828" ry="91.30474480323828" stroke-width="1.0" stroke="#ffffff" fill="none"/>
<line x1="0.0" y1="-1.4608759168518124" x2="0.0" y2="1.4608759168518124" stroke-width="3.0" stroke="#000000"/>
<line x1="-1.4608759168518124" y1="0.0" x2="1.4608759168518124" y2="0.0" stroke-width="3.0" stroke="#000000"/>
<line x1="0.0" y1="-1.4608759168518124" x2="0.0" y2="1.4608759168518124" stroke-width="1.0" stroke="#ffffff"/>
<line x1="-1.4608759168518124" y1="0.0" x2="1.4608759168518124" y2="0.0" stroke-width="1.0" stroke="#ffffff"/>
<path d="M 99.0 -47.0 C 134.0 -47.0, 99.0 -47.0, 134.0 -47.0 C 136.76142374915398 -47.0, 139.0 -44.76142374915397, 139.0 -42.0 C 139.0 -32.0, 139.0 -42.0, 139.0 -32.0 C 139.0 -29.23857625084603, 136.76142374915398 -27.0, 134.0 -27.0 C 99.0 -27.0, 134.0 -27.0, 99.0 -27.0 C 96.23857625084604 -27.0, 94.0 -29.23857625084603, 94.0 -32.0 C 94.0 -42.0, 94.0 -32.0, 94.0 -42.0 C 94.0 -44.76142374915397, 96.23857625084604 -47.0, 99.0 -47.0 z" stroke-width="2.0" stroke="#ffffff" fill="none"/>
<path d="M 82.0 -80.0 C 117.0 -80.0, 82.0 -80.0, 117.0 -80.0 C 119.76142374915398 -80.0, 122.0 -77.76142374915396, 122.0 -75.0 C 122.0 -65.0, 122.0 -75.0, 122.0 -65.0 C 122.0 -62.23857625084603, 119.76142374915398 -60.0, 117.0 -60.0 C 82.0 -60.0, 117.0 -60.0, 82.0 -60.0 C 79.23857625084604 -60.0, 77.0 -62.23857625084603, 77.0 -65.0 C 77.0 -75.0, 77.0 -65.0, 77.0 -75.0 C 77.0 -77.76142374915396, 79.23857625084604 -80.0, 82.0 -80.0 z" stroke-width="2.0" stroke="#ffffff" fill="none"/>
<path d="M 80.0 -99.0 C 165.0 -99.0, 80.0 -99.0, 165.0 -99.0 C 167.76142374915395 -99.0, 170.0 -96.76142374915396, 170.0 -94.0 C 170.0 -84.0, 170.0 -94.0, 170.0 -84.0 C 170.0 -81.23857625084602, 167.76142374915395 -79.0, 165.0 -79.0 C 80.0 -79.0, 165.0 -79.0, 80.0 -79.0 C 77.23857625084604 -79.0, 75.0 -81.23857625084602, 75.0 -84.0 C 75.0 -94.0, 75.0 -84.0, 75.0 -94.0 C 75.0 -96.76142374915396, 77.23857625084604 -99.0, 80.0 -99.0 z" stroke-width="2.0" stroke="#ffffff" fill="none"/>
<path d="M 45.0 -118.0 C 105.0 -118.0, 45.0 -118.0, 105.0 -118.0 C 107.76142374915396 -118.0, 110.0 -115.76142374915396, 110.0 -113.0 C 110.0 -103.0, 110.0 -113.0, 110.0 -103.0 C 110.0 -100.23857625084602, 107.76142374915396 -98.0, 105.0 -98.0 C 45.0 -98.0, 105.0 -98.0, 45.0 -98.0 C 42.23857625084603 -98.0, 40.0 -100.23857625084602, 40.0 -103.0 C 40.0 -113.0, 40.0 -103.0, 40.0 -113.0 C 40.0 -115.76142374915396, 42.23857625084603 -118.0, 45.0 -118.0 z" stroke-width="2.0" stroke="#ffffff" fill="none"/>
<text x="43" y="-103.0"  font-weight="normal" font-style="roman" font-family="Arial" font-size="14.0" fill="#346ee0" >2x35S\pro</text>
<path d="M 8.0 -137.0 C 47.0 -137.0, 8.0 -137.0, 47.0 -137.0 C 49.76142374915397 -137.0, 52.0 -134.76142374915398, 52.0 -132.0 C 52.0 -122.0, 52.0 -132.0, 52.0 -122.0 C 52.0 -119.23857625084602, 49.76142374915397 -117.0, 47.0 -117.0 C 8.0 -117.0, 47.0 -117.0, 8.0 -117.0 C 5.238576250846032 -117.0, 3.0 -119.23857625084602, 3.0 -122.0 C 3.0 -132.0, 3.0 -122.0, 3.0 -132.0 C 3.0 -134.76142374915398, 5.238576250846032 -137.0, 8.0 -137.0 z" stroke-width="2.0" stroke="#ffffff" fill="none"/>
<text x="6" y="-122.0"  font-weight="normal" font-style="roman" font-family="Arial" font-size="14.0" fill="#e9d024" >GGAG</text>
<path d="M 104.0 5.0 C 139.0 5.0, 104.0 5.0, 139.0 5.0 C 141.76142374915398 5.0, 144.0 7.238576250846032, 144.0 10.0 C 144.0 20.0, 144.0 10.0, 144.0 20.0 C 144.0 22.76142374915397, 141.76142374915398 25.0, 139.0 25.0 C 104.0 25.0, 139.0 25.0, 104.0 25.0 C 101.23857625084604 25.0, 99.0 22.76142374915397, 99.0 20.0 C 99.0 10.0, 99.0 20.0, 99.0 10.0 C 99.0 7.238576250846032, 101.23857625084604 5.0, 104.0 5.0 z" stroke-width="2.0" stroke="#ffffff" fill="none"/>
<path d="M 102.0 24.0 C 125.0 24.0, 102.0 24.0, 125.0 24.0 C 127.76142374915398 24.0, 130.0 26.23857625084603, 130.0 29.0 C 130.0 39.0, 130.0 29.0, 130.0 39.0 C 130.0 41.76142374915397, 127.76142374915398 44.0, 125.0 44.0 C 102.0 44.0, 125.0 44.0, 102.0 44.0 C 99.23857625084604 44.0, 97.0 41.76142374915397, 97.0 39.0 C 97.0 29.0, 97.0 39.0, 97.0 29.0 C 97.0 26.23857625084603, 99.23857625084604 24.0, 102.0 24.0 z" stroke-width="2.0" stroke="#ffffff" fill="none"/>
<path d="M 98.0 43.0 C 134.0 43.0, 98.0 43.0, 134.0 43.0 C 136.76142374915398 43.0, 139.0 45.23857625084603, 139.0 48.0 C 139.0 58.0, 139.0 48.0, 139.0 58.0 C 139.0 60.76142374915397, 136.76142374915398 63.0, 134.0 63.0 C 98.0 63.0, 134.0 63.0, 98.0 63.0 C 95.23857625084604 63.0, 93.0 60.76142374915397, 93.0 58.0 C 93.0 48.0, 93.0 58.0, 93.0 48.0 C 93.0 45.23857625084603, 95.23857625084604 43.0, 98.0 43.0 z" stroke-width="2.0" stroke="#ffffff" fill="none"/>
<path d="M 94.0 62.0 C 145.0 62.0, 94.0 62.0, 145.0 62.0 C 147.76142374915398 62.0, 150.0 64.23857625084604, 150.0 67.0 C 150.0 77.0, 150.0 67.0, 150.0 77.0 C 150.0 79.76142374915398, 147.76142374915398 82.0, 145.0 82.0 C 94.0 82.0, 145.0 82.0, 94.0 82.0 C 91.23857625084604 82.0, 89.0 79.76142374915398, 89.0 77.0 C 89.0 67.0, 89.0 77.0, 89.0 67.0 C 89.0 64.23857625084604, 91.23857625084604 62.0, 94.0 62.0 z" stroke-width="2.0" stroke="#ffffff" fill="none"/>
<text x="92" y="77.0"  font-weight="normal" font-style="roman" font-family="Arial" font-size="14.0" fill="#7eff74" >RB\short</text>
<path d="M 32.0 95.0 C 148.0 95.0, 32.0 95.0, 148.0 95.0 C 150.76142374915395 95.0, 153.0 97.23857625084604, 153.0 100.0 C 153.0 110.0, 153.0 100.0, 153.0 110.0 C 153.0 112.76142374915398, 150.76142374915395 115.0, 148.0 115.0 C 32.0 115.0, 148.0 115.0, 32.0 115.0 C 29.23857625084603 115.0, 27.0 112.76142374915398, 27.0 110.0 C 27.0 100.0, 27.0 110.0, 27.0 100.0 C 27.0 97.23857625084604, 29.23857625084603 95.0, 32.0 95.0 z" stroke-width="2.0" stroke="#ffffff" fill="none"/>
<text x="30" y="110.0"  font-weight="normal" font-style="roman" font-family="Arial" font-size="14.0" fill="#7eff74" >RK2\trfa\(no\Esp3I)</text>
<path d="M -122.0 65.0 C -78.0 65.0, -122.0 65.0, -78.0 65.0 C -75.23857625084602 65.0, -73.0 67.23857625084604, -73.0 70.0 C -73.0 80.0, -73.0 70.0, -73.0 80.0 C -73.0 82.76142374915398, -75.23857625084602 85.0, -78.0 85.0 C -122.0 85.0, -78.0 85.0, -122.0 85.0 C -124.76142374915396 85.0, -127.0 82.76142374915398, -127.0 80.0 C -127.0 70.0, -127.0 80.0, -127.0 70.0 C -127.0 67.23857625084604, -124.76142374915396 65.0, -122.0 65.0 z" stroke-width="2.0" stroke="#ffffff" fill="none"/>
<text x="-124" y="80.0"  font-weight="normal" font-style="roman" font-family="Arial" font-size="14.0" fill="#7eff74" >pUC\ori</text>
<path d="M -71.0 88.0 C -50.0 88.0, -71.0 88.0, -50.0 88.0 C -47.23857625084603 88.0, -45.0 90.23857625084604, -45.0 93.0 C -45.0 103.0, -45.0 93.0, -45.0 103.0 C -45.0 105.76142374915398, -47.23857625084603 108.0, -50.0 108.0 C -71.0 108.0, -50.0 108.0, -71.0 108.0 C -73.76142374915396 108.0, -76.0 105.76142374915398, -76.0 103.0 C -76.0 93.0, -76.0 103.0, -76.0 93.0 C -76.0 90.23857625084604, -73.76142374915396 88.0, -71.0 88.0 z" stroke-width="2.0" stroke="#ffffff" fill="none"/>
<text x="-73" y="103.0"  font-weight="normal" font-style="roman" font-family="Arial" font-size="14.0" fill="#999999" >ORI</text>
<path d="M -126.0 -31.0 C -102.0 -31.0, -126.0 -31.0, -102.0 -31.0 C -99.23857625084602 -31.0, -97.0 -28.76142374915397, -97.0 -26.0 C -97.0 -16.0, -97.0 -26.0, -97.0 -16.0 C -97.0 -13.23857625084603, -99.23857625084602 -11.0, -102.0 -11.0 C -126.0 -11.0, -102.0 -11.0, -126.0 -11.0 C -128.76142374915395 -11.0, -131.0 -13.23857625084603, -131.0 -16.0 C -131.0 -26.0, -131.0 -16.0, -131.0 -26.0 C -131.0 -28.76142374915397, -128.76142374915395 -31.0, -126.0 -31.0 z" stroke-width="2.0" stroke="#ffffff" fill="none"/>
<path d="M -70.0 -107.0 C -49.0 -107.0, -70.0 -107.0, -49.0 -107.0 C -46.23857625084603 -107.0, -44.0 -104.76142374915396, -44.0 -102.0 C -44.0 -92.0, -44.0 -102.0, -44.0 -92.0 C -44.0 -89.23857625084602, -46.23857625084603 -87.0, -49.0 -87.0 C -70.0 -87.0, -49.0 -87.0, -70.0 -87.0 C -72.76142374915396 -87.0, -75.0 -89.23857625084602, -75.0 -92.0 C -75.0 -102.0, -75.0 -92.0, -75.0 -102.0 C -75.0 -104.76142374915396, -72.76142374915396 -107.0, -70.0 -107.0 z" stroke-width="2.0" stroke="#ffffff" fill="none"/>
<text x="-72" y="-92.0"  font-weight="normal" font-style="roman" font-family="Arial" font-size="14.0" fill="#999999" >oriV</text>
<path d="M -65.0 -126.0 C -9.0 -126.0, -65.0 -126.0, -9.0 -126.0 C -6.23857625084603 -126.0, -4.0 -123.76142374915396, -4.0 -121.0 C -4.0 -111.0, -4.0 -121.0, -4.0 -111.0 C -4.0 -108.23857625084602, -6.23857625084603 -106.0, -9.0 -106.0 C -65.0 -106.0, -9.0 -106.0, -65.0 -106.0 C -67.76142374915396 -106.0, -70.0 -108.23857625084602, -70.0 -111.0 C -70.0 -121.0, -70.0 -111.0, -70.0 -121.0 C -70.0 -123.76142374915396, -67.76142374915396 -126.0, -65.0 -126.0 z" stroke-width="2.0" stroke="#ffffff" fill="none"/>
<text x="-67" y="-111.0"  font-weight="normal" font-style="roman" font-family="Arial" font-size="14.0" fill="#7eff74" >TDNA-LB</text>
<path d="M 59.5085297263504,-69.24804194627121 A 91.30474480323828,91.30474480323828 0 0 0 5.394847249358169,-91.14522503532788" stroke-width="7.0037523452157595" stroke="#1f4286" fill="none"/>
<polygon points="60.95248583510904 -71.30551598177306 62.57812345413535 -73.20727482943737 66.56266060455029 -62.49774905408927 56.075572978030095 -65.60023943878011 57.70121059705641 -67.50199828644442" stroke-width="2.0" stroke="#1f4286" fill="#000000"/>
<polygon points="5.787874723209657 -93.62789458860266 5.274683639581989 -93.65820760300929 4.993325987453943 -88.66237179667606 5.479142872314693 -88.63367571309318" stroke-width="2.0" stroke="#1f4286" fill="#000000"/>
<path d="M 59.5085297263504,-69.24804194627121 A 91.30474480323828,91.30474480323828 0 0 0 5.394847249358169,-91.14522503532788" stroke-width="5.0037523452157595" stroke="#346ee0" fill="none"/>
<polygon points="60.95248583510904 -71.30551598177306 62.57812345413535 -73.20727482943737 66.56266060455029 -62.49774905408927 56.075572978030095 -65.60023943878011 57.70121059705641 -67.50199828644442" stroke-width="1.0" stroke="none" fill="#346ee0"/>
<polygon points="5.787874723209657 -93.62789458860266 5.274683639581989 -93.65820760300929 4.993325987453943 -88.66237179667606 5.479142872314693 -88.63367571309318" stroke-width="1.0" stroke="none" fill="#346ee0"/>
<path d="M 91.21850792227663,-3.9673966297842975 A 91.30474480323828,91.30474480323828 0 0 0 72.08422941895901,-56.03945300107195" stroke-width="7.0037523452157595" stroke="#6a993e" fill="none"/>
<polygon points="93.70702005381013 -4.32163528550099 96.20623981292587 -4.436895767490639 91.12061131454006 5.795741302800106 86.20936077646289 -3.9758538395320415 88.70858053557863 -4.091114321521691" stroke-width="2.0" stroke="#6a993e" fill="#000000"/>
<polygon points="74.20999467324148 -57.38082283745615 73.89441909286522 -57.78665041195983 69.95280634754006 -54.704244452625055 70.25154876588604 -54.32006418463931" stroke-width="2.0" stroke="#6a993e" fill="#000000"/>
<path d="M 91.21850792227663,-3.9673966297842975 A 91.30474480323828,91.30474480323828 0 0 0 72.08422941895901,-56.03945300107195" stroke-width="5.0037523452157595" stroke="#b1ff67" fill="none"/>
<polygon points="93.70702005381013 -4.32163528550099 96.20623981292587 -4.436895767490639 91.12061131454006 5.795741302800106 86.20936077646289 -3.9758538395320415 88.70858053557863 -4.091114321521691" stroke-width="1.0" stroke="none" fill="#b1ff67"/>
<polygon points="74.20999467324148 -57.38082283745615 73.89441909286522 -57.78665041195983 69.95280634754006 -54.704244452625055 70.25154876588604 -54.32006418463931" stroke-width="1.0" stroke="none" fill="#b1ff67"/>
<path d="M 88.96260071948498,20.547800291271006 A 91.30474480323828,91.30474480323828 0 0 0 91.06458627543013,6.61797174889771" stroke-width="7.0037523452157595" stroke="#5e1010" fill="none"/>
<polygon points="91.45540143756728 20.87083339973459 93.89456924185109 21.42747044989238 86.25998334187513 29.929445324694747 84.13789802471585 19.20092224926123 86.57706582899966 19.757559299419015" stroke-width="2.0" stroke="#5e1010" fill="#000000"/>
<polygon points="93.54178372057379 7.043922009751154 93.57898147987552 6.531183973459431 88.5873716854731 6.18280315785956 88.55215809715426 6.668191161446911" stroke-width="2.0" stroke="#5e1010" fill="#000000"/>
<path d="M 88.96260071948498,20.547800291271006 A 91.30474480323828,91.30474480323828 0 0 0 91.06458627543013,6.61797174889771" stroke-width="5.0037523452157595" stroke="#9d1b1c" fill="none"/>
<polygon points="91.45540143756728 20.87083339973459 93.89456924185109 21.42747044989238 86.25998334187513 29.929445324694747 84.13789802471585 19.20092224926123 86.57706582899966 19.757559299419015" stroke-width="1.0" stroke="none" fill="#9d1b1c"/>
<polygon points="93.54178372057379 7.043922009751154 93.57898147987552 6.531183973459431 88.5873716854731 6.18280315785956 88.55215809715426 6.668191161446911" stroke-width="1.0" stroke="none" fill="#9d1b1c"/>
<path d="M 68.01859207199682,-60.9099955354436 A 91.30474480323828,91.30474480323828 0 0 0 67.69849668826174,-61.265569202724954" stroke-width="7.0037523452157595" stroke="#997f17" fill="none"/>
<polygon points="69.71816268079417 -62.76193058949333 71.57758590907558 -64.43582713384444 71.30235610195103 -57.030960345193506 64.13989299594994 -57.74024095644001 65.99931622423135 -59.41413750079112" stroke-width="2.0" stroke="#997f17" fill="#000000"/>
<polygon points="69.7181626807942 -62.761930589493325 69.5349438082728 -62.96486106143969 65.82587045571404 -59.60624342949784 65.99931622423136 -59.41413750079111" stroke-width="2.0" stroke="#997f17" fill="#000000"/>
<path d="M 68.01859207199682,-60.9099955354436 A 91.30474480323828,91.30474480323828 0 0 0 67.69849668826174,-61.265569202724954" stroke-width="5.0037523452157595" stroke="#ffd327" fill="none"/>
<polygon points="69.71816268079417 -62.76193058949333 71.57758590907558 -64.43582713384444 71.30235610195103 -57.030960345193506 64.13989299594994 -57.74024095644001 65.99931622423135 -59.41413750079112" stroke-width="1.0" stroke="none" fill="#ffd327"/>
<polygon points="69.7181626807942 -62.761930589493325 69.5349438082728 -62.96486106143969 65.82587045571404 -59.60624342949784 65.99931622423136 -59.41413750079111" stroke-width="1.0" stroke="none" fill="#ffd327"/>
<path d="M 4.142660672852115,-91.21071639963185 A 91.30474480323828,91.30474480323828 0 0 0 3.664669789965828,-91.23117131175604" stroke-width="7.0037523452157595" stroke="#8c7d15" fill="none"/>
<polygon points="4.010523836144626 -93.7208506014845 4.117486798043762 -96.22043922920803 5.902133767352164 -91.11378183665053 3.6896349504472155 -86.2220847183139 3.796597912346352 -88.72167334603743" stroke-width="2.0" stroke="#8c7d15" fill="#000000"/>
<polygon points="4.010523836144626 -93.7208506014845 3.907798215314456 -93.72519006123404 3.6993517935043747 -88.72578133404572 3.796597912346352 -88.72167334603743" stroke-width="2.0" stroke="#8c7d15" fill="#000000"/>
<path d="M 4.142660672852115,-91.21071639963185 A 91.30474480323828,91.30474480323828 0 0 0 3.664669789965828,-91.23117131175604" stroke-width="5.0037523452157595" stroke="#e9d024" fill="none"/>
<polygon points="4.010523836144626 -93.7208506014845 4.117486798043762 -96.22043922920803 5.902133767352164 -91.11378183665053 3.6896349504472155 -86.2220847183139 3.796597912346352 -88.72167334603743" stroke-width="1.0" stroke="none" fill="#e9d024"/>
<polygon points="4.010523836144626 -93.7208506014845 3.907798215314456 -93.72519006123404 3.6993517935043747 -88.72578133404572 3.796597912346352 -88.72167334603743" stroke-width="1.0" stroke="none" fill="#e9d024"/>
<path d="M 71.4808081733426,-56.80713411597408 A 91.30474480323828,91.30474480323828 0 0 0 71.18216379681924,-57.18090573598205" stroke-width="7.0037523452157595" stroke="#8c7d15" fill="none"/>
<polygon points="73.28628544395252 -58.55597753204682 75.24087254477534 -60.117698905519084 72.56383738509736 -55.417018392670805 67.42252414148406 -53.87081341163004 69.37711124230688 -55.4325347851023" stroke-width="2.0" stroke="#8c7d15" fill="#000000"/>
<polygon points="73.28628544395252 -58.55597753204682 73.22206084815461 -58.63626816276087 69.31631245983111 -55.50854262183491 69.37711124230688 -55.4325347851023" stroke-width="2.0" stroke="#8c7d15" fill="#000000"/>
<path d="M 71.4808081733426,-56.80713411597408 A 91.30474480323828,91.30474480323828 0 0 0 71.18216379681924,-57.18090573598205" stroke-width="5.0037523452157595" stroke="#e9d024" fill="none"/>
<polygon points="73.28628544395252 -58.55597753204682 75.24087254477534 -60.117698905519084 72.56383738509736 -55.417018392670805 67.42252414148406 -53.87081341163004 69.37711124230688 -55.4325347851023" stroke-width="1.0" stroke="none" fill="#e9d024"/>
<polygon points="73.28628544395252 -58.55597753204682 73.22206084815461 -58.63626816276087 69.31631245983111 -55.50854262183491 69.37711124230688 -55.4325347851023" stroke-width="1.0" stroke="none" fill="#e9d024"/>
<path d="M 91.146882150591,5.366777227605354 A 91.30474480323828,91.30474480323828 0 0 0 91.17375217367474,4.889104024032138" stroke-width="7.0037523452157595" stroke="#8c7d15" fill="none"/>
<polygon points="93.6585849711696 5.2679787494128725 96.15651293896063 5.40847875222562 91.02636394306543 7.1244291623305225 86.16480106779647 4.84647874097463 88.66272903558752 4.986978743787377" stroke-width="2.0" stroke="#8c7d15" fill="#000000"/>
<polygon points="93.6585849711696 5.2679787494128725 93.66430270813125 5.165320619827821 88.66814178192661 4.88979651613039 88.66272903558752 4.986978743787377" stroke-width="2.0" stroke="#8c7d15" fill="#000000"/>
<path d="M 91.146882150591,5.366777227605354 A 91.30474480323828,91.30474480323828 0 0 0 91.17375217367474,4.889104024032138" stroke-width="5.0037523452157595" stroke="#e9d024" fill="none"/>
<polygon points="93.6585849711696 5.2679787494128725 96.15651293896063 5.40847875222562 91.02636394306543 7.1244291623305225 86.16480106779647 4.84647874097463 88.66272903558752 4.986978743787377" stroke-width="1.0" stroke="none" fill="#e9d024"/>
<polygon points="93.6585849711696 5.2679787494128725 93.66430270813125 5.165320619827821 88.66814178192661 4.88979651613039 88.66272903558752 4.986978743787377" stroke-width="1.0" stroke="none" fill="#e9d024"/>
<path d="M -39.37109748997588,82.38005284059535 A 91.30474480323828,91.30474480323828 0 0 0 73.91511705843833,53.60141690125203" stroke-width="7.0037523452157595" stroke="#4b9945" fill="none"/>
<polygon points="-38.08193652236241 80.22291186273259 -38.52100618499057 80.01300868936825 -40.691539389722344 84.52148106251295 -40.22772958200691 84.74321159587349" stroke-width="2.0" stroke="#4b9945" fill="#000000"/>
<polygon points="71.75315866089713 52.32049024247694 69.73163029440097 50.846445654781434 79.2163690632258 45.40179837873464 77.8177437603856 56.74262400556347 75.79621539388944 55.26857941786796" stroke-width="2.0" stroke="#4b9945" fill="#000000"/>
<path d="M -39.37109748997588,82.38005284059535 A 91.30474480323828,91.30474480323828 0 0 0 73.91511705843833,53.60141690125203" stroke-width="5.0037523452157595" stroke="#7eff74" fill="none"/>
<polygon points="-38.08193652236241 80.22291186273259 -38.52100618499057 80.01300868936825 -40.691539389722344 84.52148106251295 -40.22772958200691 84.74321159587349" stroke-width="1.0" stroke="none" fill="#7eff74"/>
<polygon points="71.75315866089713 52.32049024247694 69.73163029440097 50.846445654781434 79.2163690632258 45.40179837873464 77.8177437603856 56.74262400556347 75.79621539388944 55.26857941786796" stroke-width="1.0" stroke="none" fill="#7eff74"/>
<path d="M 80.46769750709926,43.14517448673071 A 91.30474480323828,91.30474480323828 0 0 0 81.2187124485679,41.71423224489825" stroke-width="7.0037523452157595" stroke="#4b9945" fill="none"/>
<polygon points="78.3726480853349 41.757364729125946 78.14263043529257 42.186239292952955 82.54571308714122 44.56329644271643 82.7886914824116 44.11025619440598" stroke-width="2.0" stroke="#4b9945" fill="#000000"/>
<polygon points="78.88684170306375 40.77763704709681 76.66433343691627 39.6287935460188 85.20881767497191 32.802649496921156 85.5543665015062 44.22416755033083 83.33185823535871 43.07532404925283" stroke-width="2.0" stroke="#4b9945" fill="#000000"/>
<path d="M 80.46769750709926,43.14517448673071 A 91.30474480323828,91.30474480323828 0 0 0 81.2187124485679,41.71423224489825" stroke-width="5.0037523452157595" stroke="#7eff74" fill="none"/>
<polygon points="78.3726480853349 41.757364729125946 78.14263043529257 42.186239292952955 82.54571308714122 44.56329644271643 82.7886914824116 44.11025619440598" stroke-width="1.0" stroke="none" fill="#7eff74"/>
<polygon points="78.88684170306375 40.77763704709681 76.66433343691627 39.6287935460188 85.20881767497191 32.802649496921156 85.5543665015062 44.22416755033083 83.33185823535871 43.07532404925283" stroke-width="1.0" stroke="none" fill="#7eff74"/>
<path d="M -9.891233193351871,-90.76739463870935 A 91.30474480323828,91.30474480323828 0 0 0 -13.328654637501382,-90.32664827800642" stroke-width="7.0037523452157595" stroke="#4b9945" fill="none"/>
<polygon points="-10.406686730407364 -93.22758717354657 -10.684239010787495 -95.71402018384843 -0.14252243778280588 -91.30463356773957 -9.574029889266969 -85.76828814264094 -9.8515821696471 -88.25472115294282" stroke-width="2.0" stroke="#4b9945" fill="#000000"/>
<polygon points="-13.450829407602368 -92.837262600497 -13.959398729720405 -92.762154599873 -13.214788451628996 -87.8141152845469 -12.733346798238182 -87.88521693860008" stroke-width="2.0" stroke="#4b9945" fill="#000000"/>
<path d="M -9.891233193351871,-90.76739463870935 A 91.30474480323828,91.30474480323828 0 0 0 -13.328654637501382,-90.32664827800642" stroke-width="5.0037523452157595" stroke="#7eff74" fill="none"/>
<polygon points="-10.406686730407364 -93.22758717354657 -10.684239010787495 -95.71402018384843 -0.14252243778280588 -91.30463356773957 -9.574029889266969 -85.76828814264094 -9.8515821696471 -88.25472115294282" stroke-width="1.0" stroke="none" fill="#7eff74"/>
<polygon points="-13.450829407602368 -92.837262600497 -13.959398729720405 -92.762154599873 -13.214788451628996 -87.8141152845469 -12.733346798238182 -87.88521693860008" stroke-width="1.0" stroke="none" fill="#7eff74"/>
<path d="M -16.6792105507434,-89.76837059336901 A 91.30474480323828,91.30474480323828 0 0 0 -58.66225104077413,-69.96639712328813" stroke-width="7.0037523452157595" stroke="#5c5c5c" fill="none"/>
<polygon points="-16.45099536984342 -87.2657677922471 -15.972510200135943 -87.35461290015286 -16.87250911464562 -92.27676075308594 -17.3779553648564 -92.18290951278941" stroke-width="2.0" stroke="#5c5c5c" fill="#000000"/>
<polygon points="-56.87647318994064 -68.19835976402193 -55.274071203944416 -66.27698206603061 -65.79809434484771 -63.302189568536946 -61.68367914792929 -73.9624928579959 -60.08127716193307 -72.04111516000457" stroke-width="2.0" stroke="#5c5c5c" fill="#000000"/>
<path d="M -16.6792105507434,-89.76837059336901 A 91.30474480323828,91.30474480323828 0 0 0 -58.66225104077413,-69.96639712328813" stroke-width="5.0037523452157595" stroke="#999999" fill="none"/>
<polygon points="-16.45099536984342 -87.2657677922471 -15.972510200135943 -87.35461290015286 -16.87250911464562 -92.27676075308594 -17.3779553648564 -92.18290951278941" stroke-width="1.0" stroke="none" fill="#999999"/>
<polygon points="-56.87647318994064 -68.19835976402193 -55.274071203944416 -66.27698206603061 -65.79809434484771 -63.302189568536946 -61.68367914792929 -73.9624928579959 -60.08127716193307 -72.04111516000457" stroke-width="1.0" stroke="none" fill="#999999"/>
<path d="M -83.41573775804963,37.12642075213769 A 91.30474480323828,91.30474480323828 0 0 0 -40.844121879924735,81.65974608974928" stroke-width="7.0037523452157595" stroke="#4b9945" fill="none"/>
<polygon points="-85.60109983554094 38.3683964461875 -87.88413007156993 39.39170349905113 -86.90314251105474 28.00714632531807 -78.75200912745397 35.29847528759659 -81.03503936348295 36.321782340460224" stroke-width="2.0" stroke="#4b9945" fill="#000000"/>
<polygon points="-42.18266987156568 83.78725739283131 -41.72286140050451 84.01717071801663 -39.497316301340966 79.53559883486656 -39.932598063183875 79.31794934914294" stroke-width="2.0" stroke="#4b9945" fill="#000000"/>
<path d="M -83.41573775804963,37.12642075213769 A 91.30474480323828,91.30474480323828 0 0 0 -40.844121879924735,81.65974608974928" stroke-width="5.0037523452157595" stroke="#7eff74" fill="none"/>
<polygon points="-85.60109983554094 38.3683964461875 -87.88413007156993 39.39170349905113 -86.90314251105474 28.00714632531807 -78.75200912745397 35.29847528759659 -81.03503936348295 36.321782340460224" stroke-width="1.0" stroke="none" fill="#7eff74"/>
<polygon points="-42.18266987156568 83.78725739283131 -41.72286140050451 84.01717071801663 -39.497316301340966 79.53559883486656 -39.932598063183875 79.31794934914294" stroke-width="1.0" stroke="none" fill="#7eff74"/>
<path d="M -42.81228937331367,80.64529931868393 A 91.30474480323828,91.30474480323828 0 0 0 -42.389129232329466,80.86852383040845" stroke-width="7.0037523452157595" stroke="#5c5c5c" fill="none"/>
<polygon points="-43.76788160754065 82.97020355823146 -44.935196014352336 85.18306628752873 -44.36048048754098 79.80416151115782 -40.26593838710559 76.33161537033968 -41.433252793917276 78.54447809963693" stroke-width="2.0" stroke="#5c5c5c" fill="#000000"/>
<polygon points="-43.76788160754065 82.97020355823146 -43.676915406727595 83.01812572841922 -41.34713883419252 78.58984404651156 -41.433252793917276 78.54447809963693" stroke-width="2.0" stroke="#5c5c5c" fill="#000000"/>
<path d="M -42.81228937331367,80.64529931868393 A 91.30474480323828,91.30474480323828 0 0 0 -42.389129232329466,80.86852383040845" stroke-width="5.0037523452157595" stroke="#999999" fill="none"/>
<polygon points="-43.76788160754065 82.97020355823146 -44.935196014352336 85.18306628752873 -44.36048048754098 79.80416151115782 -40.26593838710559 76.33161537033968 -41.433252793917276 78.54447809963693" stroke-width="1.0" stroke="none" fill="#999999"/>
<polygon points="-43.76788160754065 82.97020355823146 -43.676915406727595 83.01812572841922 -41.34713883419252 78.58984404651156 -41.433252793917276 78.54447809963693" stroke-width="1.0" stroke="none" fill="#999999"/>
<path d="M -77.28295982891923,-48.61996034208711 A 91.30474480323828,91.30474480323828 0 0 0 -89.56399623838944,17.743928578368166" stroke-width="7.0037523452157595" stroke="#8c7d15" fill="none"/>
<polygon points="-75.28903625697407 -47.09045016269271 -75.02983827680215 -47.50234568088102 -79.25752523137889 -50.17894810678477 -79.53132817331792 -49.7438436180204" stroke-width="2.0" stroke="#8c7d15" fill="#000000"/>
<polygon points="-87.15468647819269 17.029682965837537 -84.69924515300458 16.549899387938577 -87.1571124919455 27.206509619038336 -94.521010453757 18.469033699534418 -92.0655691285689 17.989250121635457" stroke-width="2.0" stroke="#8c7d15" fill="#000000"/>
<path d="M -77.28295982891923,-48.61996034208711 A 91.30474480323828,91.30474480323828 0 0 0 -89.56399623838944,17.743928578368166" stroke-width="5.0037523452157595" stroke="#e9d024" fill="none"/>
<polygon points="-75.28903625697407 -47.09045016269271 -75.02983827680215 -47.50234568088102 -79.25752523137889 -50.17894810678477 -79.53132817331792 -49.7438436180204" stroke-width="1.0" stroke="none" fill="#e9d024"/>
<polygon points="-87.15468647819269 17.029682965837537 -84.69924515300458 16.549899387938577 -87.1571124919455 27.206509619038336 -94.521010453757 18.469033699534418 -92.0655691285689 17.989250121635457" stroke-width="1.0" stroke="none" fill="#e9d024"/>
<path d="M 86.39991082934895,29.523072879783644 A 91.30474480323828,91.30474480323828 0 0 0 86.55342232333085,29.069941652910163" stroke-width="7.0037523452157595" stroke="#8c7d15" fill="none"/>
<polygon points="88.84670309885787 30.098928342541683 91.21629542811397 30.901683956781604 85.8141809092795 31.184656138138124 81.73792611108958 27.690661499821914 84.10751844034569 28.493417114061838" stroke-width="2.0" stroke="#8c7d15" fill="#000000"/>
<polygon points="88.84670309885787 30.098928342541683 88.87963981392764 30.001529385225513 84.13869827340051 28.401213528415838 84.10751844034569 28.493417114061838" stroke-width="2.0" stroke="#8c7d15" fill="#000000"/>
<path d="M 86.39991082934895,29.523072879783644 A 91.30474480323828,91.30474480323828 0 0 0 86.55342232333085,29.069941652910163" stroke-width="5.0037523452157595" stroke="#e9d024" fill="none"/>
<polygon points="88.84670309885787 30.098928342541683 91.21629542811397 30.901683956781604 85.8141809092795 31.184656138138124 81.73792611108958 27.690661499821914 84.10751844034569 28.493417114061838" stroke-width="1.0" stroke="none" fill="#e9d024"/>
<polygon points="88.84670309885787 30.098928342541683 88.87963981392764 30.001529385225513 84.13869827340051 28.401213528415838 84.10751844034569 28.493417114061838" stroke-width="1.0" stroke="none" fill="#e9d024"/>
<text x="-56" y="-28.0"  font-weight="normal" font-style="roman" font-family="Arial" font-size="14.0" fill="#000000" >New_Golden_Gate</text>
<text x="-25" y="22.0"  font-weight="normal" font-style="roman" font-family="Arial" font-size="14.0" fill="#000000" >6203 bp</text>
<text x="78" y="-84.0"  font-weight="normal" font-style="roman" font-family="Arial" font-size="14.0" fill="#ffd327" >Omega\leader</text>
<text x="80" y="-65.0"  font-weight="normal" font-style="roman" font-family="Arial" font-size="14.0" fill="#e9d024" >AATG</text>
<text x="97" y="-32.0"  font-weight="normal" font-style="roman" font-family="Arial" font-size="14.0" fill="#b1ff67" >EGFP</text>
<text x="102" y="20.0"  font-weight="normal" font-style="roman" font-family="Arial" font-size="14.0" fill="#e9d024" >GCTT</text>
<text x="100" y="39.0"  font-weight="normal" font-style="roman" font-family="Arial" font-size="14.0" fill="#9d1b1c" >nost</text>
<text x="96" y="58.0"  font-weight="normal" font-style="roman" font-family="Arial" font-size="14.0" fill="#e9d024" >CGCT</text>
<text x="-128" y="-16.0"  font-weight="normal" font-style="roman" font-family="Arial" font-size="14.0" fill="#e9d024" >AP\r</text>
</svg>

