<svg id="svgbox" width="400px" height="79px" xmlns="http://www.w3.org/2000/svg" version="1.1" preserveAspectRatio="xMidYMid meet" viewBox="-2 348 400 79">
<line x1="0.0" y1="350.0" x2="395.9390862944162" y2="350.0" stroke-width="1.0" stroke="#000000"/>
<text x="0" y="368.0"  font-weight="normal" font-style="roman" font-family="Arial" font-size="14.0" fill="#000000" >CmWOX11_CDS.gb from 1 to 882</text>
<rect x="0.500375234521576" y="403.49812382739213" width="384.41597794306716" height="5.00375234521573" stroke-width="2.0" stroke="#8c7d15" fill="#8c7d15"/>
<polygon points="384.9163531781019 403.49812382739213 384.91635317861505 400.9962476547842 394.92385786802026 406.00000000205256 384.91635317656244 411.0037523452158 384.9163531770756 408.50187617260787" stroke-width="1.0" stroke="#8c7d15" fill="#8c7d15"/>
<polygon points="0.5003752340084325 403.49812382739213 -5.131434166472104e-10 403.49812382749474 5.131434166472104e-10 408.5018761727105 0.5003752350347194 408.50187617260787" stroke-width="1.0" stroke="#8c7d15" fill="#8c7d15"/>
<rect x="-0.49962476547842405" y="403.49812382739213" width="386.41597794306716" height="5.00375234521573" stroke-width="1.0" stroke="none" fill="#e9d024"/>
<polygon points="384.9163531781019 403.49812382739213 384.91635317861505 400.9962476547842 394.92385786802026 406.00000000205256 384.91635317656244 411.0037523452158 384.9163531770756 408.50187617260787" stroke-width="1.0" stroke="none" fill="#e9d024"/>
<polygon points="0.5003752340084325 403.49812382739213 -5.131434166472104e-10 403.49812382749474 5.131434166472104e-10 408.5018761727105 0.5003752350347194 408.50187617260787" stroke-width="1.0" stroke="none" fill="#e9d024"/>
<path d="M 160.0 410.0 C 225.0 410.0, 160.0 410.0, 225.0 410.0 C 227.20913899932316 410.0, 229.0 411.79086100067684, 229.0 414.0 C 229.0 422.0, 229.0 414.0, 229.0 422.0 C 229.0 424.20913899932316, 227.20913899932316 426.0, 225.0 426.0 C 160.0 426.0, 225.0 426.0, 160.0 426.0 C 157.7908610006768 426.0, 156.0 424.20913899932316, 156.0 422.0 C 156.0 414.0, 156.0 422.0, 156.0 414.0 C 156.0 411.79086100067684, 157.7908610006768 410.0, 160.0 410.0 z" stroke-width="0.0" stroke="none" fill="none"/>
<text x="157" y="423.0"  font-weight="normal" font-style="roman" font-family="Arial" font-size="14.0" fill="#000000" >CmWOX11</text>
</svg>

