<svg id="svgbox" width="340px" height="288px" xmlns="http://www.w3.org/2000/svg" version="1.1" preserveAspectRatio="xMidYMid meet" viewBox="-126 -172 340 288">
<line x1="78.96315595075637" y1="-57.016912280156085" x2="78.96315595075637" y2="-57.016912280156085" stroke-width="1.0" stroke="#4b9945"/>
<line x1="71.6790618248926" y1="-65.83435757840398" x2="71.6790618248926" y2="-75.83435757840398" stroke-width="1.0" stroke="#8c7d15"/>
<line x1="71.00492634605199" y1="-66.55175526660315" x2="71.00492634605199" y2="-94.55175526660315" stroke-width="1.0" stroke="#000000"/>
<line x1="42.285639398032295" y1="-87.4041689899386" x2="42.285639398032295" y2="-114.4041689899386" stroke-width="1.0" stroke="#021e99"/>
<line x1="7.498354693801212" y1="-96.60718791017592" x2="7.498354693801212" y2="-132.60718791017592" stroke-width="1.0" stroke="#000000"/>
<line x1="7.007095862895496" y1="-96.64168829200504" x2="7.007095862895496" y2="-151.64168829200503" stroke-width="1.0" stroke="#8c7d15"/>
<line x1="89.474020609627" y1="39.67535255219396" x2="89.474020609627" y2="39.67535255219396" stroke-width="1.0" stroke="#4b9945"/>
<line x1="16.159832021713427" y1="96.45803572849998" x2="16.159832021713427" y2="96.45803572849998" stroke-width="1.0" stroke="#5c5c5c"/>
<line x1="-94.36749775404641" y1="22.334966198356984" x2="-94.36749775404641" y2="22.334966198356984" stroke-width="1.0" stroke="#8c7d15"/>
<line x1="-27.64574644649539" y1="93.59618418649313" x2="-27.64574644649539" y2="93.59618418649313" stroke-width="1.0" stroke="#4b9945"/>
<line x1="-55.66484976394844" y1="-79.06198697138481" x2="-55.66484976394844" y2="-79.06198697138481" stroke-width="1.0" stroke="#5c5c5c"/>
<line x1="-8.61140194229016" y1="-96.44223756459692" x2="-8.61140194229016" y2="-96.44223756459692" stroke-width="1.0" stroke="#4b9945"/>
<line x1="70.85577726752149" y1="-51.162818764791936" x2="78.96315595075637" y2="-57.016912280156085" stroke-width="1.0" stroke="#4b9945"/>
<line x1="64.31410323990897" y1="-59.06993705322401" x2="71.6790618248926" y2="-65.83435757840398" stroke-width="1.0" stroke="#8c7d15"/>
<line x1="63.70876666687694" y1="-59.713184221715174" x2="71.00492634605199" y2="-66.55175526660315" stroke-width="1.0" stroke="#000000"/>
<line x1="37.930589292998995" y1="-78.40230592818025" x2="42.285639398032295" y2="-87.4041689899386" stroke-width="1.0" stroke="#021e99"/>
<line x1="6.724512716634406" y1="-86.63717444005592" x2="7.498354693801212" y2="-96.60718791017592" stroke-width="1.0" stroke="#000000"/>
<line x1="6.283934900737785" y1="-86.66787065667548" x2="7.007095862895496" y2="-96.64168829200504" stroke-width="1.0" stroke="#8c7d15"/>
<line x1="80.33246240092178" y1="35.621722880300595" x2="89.474020609627" y2="39.67535255219396" stroke-width="1.0" stroke="#4b9945"/>
<line x1="14.50753657095879" y1="86.59548434747207" x2="16.159832021713427" y2="96.45803572849998" stroke-width="1.0" stroke="#5c5c5c"/>
<line x1="-84.63634277092292" y1="20.03178954546415" x2="-94.36749775404641" y2="22.334966198356984" stroke-width="1.0" stroke="#8c7d15"/>
<line x1="-24.813008010325504" y1="84.00579352957797" x2="-27.64574644649539" y2="93.59618418649313" stroke-width="1.0" stroke="#4b9945"/>
<line x1="-49.90793510623731" y1="-70.88531688975435" x2="-55.66484976394844" y2="-79.06198697138481" stroke-width="1.0" stroke="#5c5c5c"/>
<line x1="-7.7220325743493765" y1="-86.4818649748105" x2="-8.61140194229016" y2="-96.44223756459692" stroke-width="1.0" stroke="#4b9945"/>
<ellipse cx="0.0" cy="0.0" rx="87.3004251299008" ry="87.3004251299008" stroke-width="3.0" stroke="#000000" fill="none"/>
<ellipse cx="0.0" cy="0.0" rx="87.3004251299008" ry="87.3004251299008" stroke-width="1.0" stroke="#ffffff" fill="none"/>
<line x1="0.0" y1="-1.3968068020784128" x2="0.0" y2="1.3968068020784128" stroke-width="3.0" stroke="#000000"/>
<line x1="-1.3968068020784128" y1="0.0" x2="1.3968068020784128" y2="0.0" stroke-width="3.0" stroke="#000000"/>
<line x1="0.0" y1="-1.3968068020784128" x2="0.0" y2="1.3968068020784128" stroke-width="1.0" stroke="#ffffff"/>
<line x1="-1.3968068020784128" y1="0.0" x2="1.3968068020784128" y2="0.0" stroke-width="1.0" stroke="#ffffff"/>
<path d="M 81.0 -75.0 C 132.0 -75.0, 81.0 -75.0, 132.0 -75.0 C 134.76142374915398 -75.0, 137.0 -72.76142374915396, 137.0 -70.0 C 137.0 -60.0, 137.0 -70.0, 137.0 -60.0 C 137.0 -57.23857625084603, 134.76142374915398 -55.0, 132.0 -55.0 C 81.0 -55.0, 132.0 -55.0, 81.0 -55.0 C 78.23857625084604 -55.0, 76.0 -57.23857625084603, 76.0 -60.0 C 76.0 -70.0, 76.0 -60.0, 76.0 -70.0 C 76.0 -72.76142374915396, 78.23857625084604 -75.0, 81.0 -75.0 z" stroke-width="2.0" stroke="#ffffff" fill="none"/>
<path d="M 74.0 -94.0 C 110.0 -94.0, 74.0 -94.0, 110.0 -94.0 C 112.76142374915398 -94.0, 115.0 -91.76142374915396, 115.0 -89.0 C 115.0 -79.0, 115.0 -89.0, 115.0 -79.0 C 115.0 -76.23857625084602, 112.76142374915398 -74.0, 110.0 -74.0 C 74.0 -74.0, 110.0 -74.0, 74.0 -74.0 C 71.23857625084604 -74.0, 69.0 -76.23857625084602, 69.0 -79.0 C 69.0 -89.0, 69.0 -79.0, 69.0 -89.0 C 69.0 -91.76142374915396, 71.23857625084604 -94.0, 74.0 -94.0 z" stroke-width="2.0" stroke="#ffffff" fill="none"/>
<path d="M 69.0 -112.0 C 150.0 -112.0, 69.0 -112.0, 150.0 -112.0 C 150.0 -94.0, 150.0 -112.0, 150.0 -94.0 C 69.0 -94.0, 150.0 -94.0, 69.0 -94.0 C 69.0 -112.0, 69.0 -94.0, 69.0 -112.0 z" stroke-width="1.0" stroke="#ffffff" fill="#ffffff"/>
<text x="71" y="-98.0"  font-weight="normal" font-style="roman" font-family="Arial" font-size="14.0" fill="#000000" >641 BsaI (2)</text>
<path d="M 44.0 -132.0 C 67.0 -132.0, 44.0 -132.0, 67.0 -132.0 C 69.76142374915398 -132.0, 72.0 -129.76142374915395, 72.0 -127.0 C 72.0 -117.0, 72.0 -127.0, 72.0 -117.0 C 72.0 -114.23857625084602, 69.76142374915398 -112.0, 67.0 -112.0 C 44.0 -112.0, 67.0 -112.0, 44.0 -112.0 C 41.23857625084603 -112.0, 39.0 -114.23857625084602, 39.0 -117.0 C 39.0 -127.0, 39.0 -117.0, 39.0 -127.0 C 39.0 -129.76142374915395, 41.23857625084603 -132.0, 44.0 -132.0 z" stroke-width="2.0" stroke="#ffffff" fill="none"/>
<text x="42" y="-117.0"  font-weight="normal" font-style="roman" font-family="Arial" font-size="14.0" fill="#0432ff" >lacZ</text>
<path d="M 5.0 -150.0 C 78.0 -150.0, 5.0 -150.0, 78.0 -150.0 C 78.0 -132.0, 78.0 -150.0, 78.0 -132.0 C 5.0 -132.0, 78.0 -132.0, 5.0 -132.0 C 5.0 -150.0, 5.0 -132.0, 5.0 -150.0 z" stroke-width="1.0" stroke="#ffffff" fill="#ffffff"/>
<text x="7" y="-136.0"  font-weight="normal" font-style="roman" font-family="Arial" font-size="14.0" fill="#000000" >57 BsaI (2)</text>
<path d="M 9.0 -170.0 C 48.0 -170.0, 9.0 -170.0, 48.0 -170.0 C 50.76142374915397 -170.0, 53.0 -167.76142374915398, 53.0 -165.0 C 53.0 -155.0, 53.0 -165.0, 53.0 -155.0 C 53.0 -152.23857625084602, 50.76142374915397 -150.0, 48.0 -150.0 C 9.0 -150.0, 48.0 -150.0, 9.0 -150.0 C 6.238576250846032 -150.0, 4.0 -152.23857625084602, 4.0 -155.0 C 4.0 -165.0, 4.0 -155.0, 4.0 -165.0 C 4.0 -167.76142374915398, 6.238576250846032 -170.0, 9.0 -170.0 z" stroke-width="2.0" stroke="#ffffff" fill="none"/>
<text x="7" y="-155.0"  font-weight="normal" font-style="roman" font-family="Arial" font-size="14.0" fill="#e9d024" >GGAG</text>
<path d="M 91.0 38.0 C 207.0 38.0, 91.0 38.0, 207.0 38.0 C 209.76142374915395 38.0, 212.0 40.23857625084603, 212.0 43.0 C 212.0 53.0, 212.0 43.0, 212.0 53.0 C 212.0 55.76142374915397, 209.76142374915395 58.0, 207.0 58.0 C 91.0 58.0, 207.0 58.0, 91.0 58.0 C 88.23857625084604 58.0, 86.0 55.76142374915397, 86.0 53.0 C 86.0 43.0, 86.0 53.0, 86.0 43.0 C 86.0 40.23857625084603, 88.23857625084604 38.0, 91.0 38.0 z" stroke-width="2.0" stroke="#ffffff" fill="none"/>
<text x="89" y="53.0"  font-weight="normal" font-style="roman" font-family="Arial" font-size="14.0" fill="#7eff74" >RK2\trfa\(no\Esp3I)</text>
<path d="M 18.0 94.0 C 39.0 94.0, 18.0 94.0, 39.0 94.0 C 41.76142374915397 94.0, 44.0 96.23857625084604, 44.0 99.0 C 44.0 109.0, 44.0 99.0, 44.0 109.0 C 44.0 111.76142374915398, 41.76142374915397 114.0, 39.0 114.0 C 18.0 114.0, 39.0 114.0, 18.0 114.0 C 15.23857625084603 114.0, 13.0 111.76142374915398, 13.0 109.0 C 13.0 99.0, 13.0 109.0, 13.0 99.0 C 13.0 96.23857625084604, 15.23857625084603 94.0, 18.0 94.0 z" stroke-width="2.0" stroke="#ffffff" fill="none"/>
<text x="16" y="109.0"  font-weight="normal" font-style="roman" font-family="Arial" font-size="14.0" fill="#999999" >ORI</text>
<path d="M -120.0 20.0 C -96.0 20.0, -120.0 20.0, -96.0 20.0 C -93.23857625084602 20.0, -91.0 22.23857625084603, -91.0 25.0 C -91.0 35.0, -91.0 25.0, -91.0 35.0 C -91.0 37.76142374915397, -93.23857625084602 40.0, -96.0 40.0 C -120.0 40.0, -96.0 40.0, -120.0 40.0 C -122.76142374915396 40.0, -125.0 37.76142374915397, -125.0 35.0 C -125.0 25.0, -125.0 35.0, -125.0 25.0 C -125.0 22.23857625084603, -122.76142374915396 20.0, -120.0 20.0 z" stroke-width="2.0" stroke="#ffffff" fill="none"/>
<text x="-122" y="35.0"  font-weight="normal" font-style="roman" font-family="Arial" font-size="14.0" fill="#e9d024" >AP\r</text>
<path d="M -74.0 92.0 C -30.0 92.0, -74.0 92.0, -30.0 92.0 C -27.23857625084603 92.0, -25.0 94.23857625084604, -25.0 97.0 C -25.0 107.0, -25.0 97.0, -25.0 107.0 C -25.0 109.76142374915398, -27.23857625084603 112.0, -30.0 112.0 C -74.0 112.0, -30.0 112.0, -74.0 112.0 C -76.76142374915396 112.0, -79.0 109.76142374915398, -79.0 107.0 C -79.0 97.0, -79.0 107.0, -79.0 97.0 C -79.0 94.23857625084604, -76.76142374915396 92.0, -74.0 92.0 z" stroke-width="2.0" stroke="#ffffff" fill="none"/>
<text x="-76" y="107.0"  font-weight="normal" font-style="roman" font-family="Arial" font-size="14.0" fill="#7eff74" >pUC\ori</text>
<path d="M -79.0 -97.0 C -58.0 -97.0, -79.0 -97.0, -58.0 -97.0 C -55.23857625084603 -97.0, -53.0 -94.76142374915396, -53.0 -92.0 C -53.0 -82.0, -53.0 -92.0, -53.0 -82.0 C -53.0 -79.23857625084602, -55.23857625084603 -77.0, -58.0 -77.0 C -79.0 -77.0, -58.0 -77.0, -79.0 -77.0 C -81.76142374915396 -77.0, -84.0 -79.23857625084602, -84.0 -82.0 C -84.0 -92.0, -84.0 -82.0, -84.0 -92.0 C -84.0 -94.76142374915396, -81.76142374915396 -97.0, -79.0 -97.0 z" stroke-width="2.0" stroke="#ffffff" fill="none"/>
<text x="-81" y="-82.0"  font-weight="normal" font-style="roman" font-family="Arial" font-size="14.0" fill="#999999" >oriV</text>
<path d="M -67.0 -114.0 C -11.0 -114.0, -67.0 -114.0, -11.0 -114.0 C -8.23857625084603 -114.0, -6.0 -111.76142374915396, -6.0 -109.0 C -6.0 -99.0, -6.0 -109.0, -6.0 -99.0 C -6.0 -96.23857625084602, -8.23857625084603 -94.0, -11.0 -94.0 C -67.0 -94.0, -11.0 -94.0, -67.0 -94.0 C -69.76142374915396 -94.0, -72.0 -96.23857625084602, -72.0 -99.0 C -72.0 -109.0, -72.0 -99.0, -72.0 -109.0 C -72.0 -111.76142374915396, -69.76142374915396 -114.0, -67.0 -114.0 z" stroke-width="2.0" stroke="#ffffff" fill="none"/>
<text x="-69" y="-99.0"  font-weight="normal" font-style="roman" font-family="Arial" font-size="14.0" fill="#7eff74" >TDNA-LB</text>
<path d="M 19.37082584645965,85.12423470368203 A 87.3004251299008,87.3004251299008 0 0 0 80.07382016970243,-34.77855016086166" stroke-width="7.0037523452157595" stroke="#4b9945" fill="none"/>
<polygon points="19.03216384352153 82.63516590832111 18.558218202732803 82.74289360665459 19.65329269394512 87.62534682106927 20.155204693129853 87.51126237807674" stroke-width="2.0" stroke="#4b9945" fill="#000000"/>
<polygon points="77.86727414752616 -33.57799163285991 75.56989665450165 -32.587314572659416 75.68448273863409 -43.51118592324063 84.75940662659967 -36.5500228134614 82.46202913357516 -35.55934575326091" stroke-width="2.0" stroke="#4b9945" fill="#000000"/>
<path d="M 19.37082584645965,85.12423470368203 A 87.3004251299008,87.3004251299008 0 0 0 80.07382016970243,-34.77855016086166" stroke-width="5.0037523452157595" stroke="#7eff74" fill="none"/>
<polygon points="19.03216384352153 82.63516590832111 18.558218202732803 82.74289360665459 19.65329269394512 87.62534682106927 20.155204693129853 87.51126237807674" stroke-width="1.0" stroke="none" fill="#7eff74"/>
<polygon points="77.86727414752616 -33.57799163285991 75.56989665450165 -32.587314572659416 75.68448273863409 -43.51118592324063 84.75940662659967 -36.5500228134614 82.46202913357516 -35.55934575326091" stroke-width="1.0" stroke="none" fill="#7eff74"/>
<path d="M 74.13348561412171,-46.104127131551095 A 87.3004251299008,87.3004251299008 0 0 0 72.0165502337887,-49.345523812050104" stroke-width="7.0037523452157595" stroke="#4b9945" fill="none"/>
<polygon points="71.8913533048612 -44.971404528411455 72.14793124078518 -44.558612219607305 76.40520196755622 -47.187905564069005 76.13348400312472 -47.62505572461312" stroke-width="2.0" stroke="#4b9945" fill="#000000"/>
<polygon points="70.07799669384211 -47.74796628800287 68.01043218586076 -46.3392216736746 66.04941275419007 -57.08624442620173 76.28069021778614 -51.97420013098769 74.2131257098048 -50.56545551665941" stroke-width="2.0" stroke="#4b9945" fill="#000000"/>
<path d="M 74.13348561412171,-46.104127131551095 A 87.3004251299008,87.3004251299008 0 0 0 72.0165502337887,-49.345523812050104" stroke-width="5.0037523452157595" stroke="#7eff74" fill="none"/>
<polygon points="71.8913533048612 -44.971404528411455 72.14793124078518 -44.558612219607305 76.40520196755622 -47.187905564069005 76.13348400312472 -47.62505572461312" stroke-width="1.0" stroke="none" fill="#7eff74"/>
<polygon points="70.07799669384211 -47.74796628800287 68.01043218586076 -46.3392216736746 66.04941275419007 -57.08624442620173 76.28069021778614 -51.97420013098769 74.2131257098048 -50.56545551665941" stroke-width="1.0" stroke="none" fill="#7eff74"/>
<path d="M -9.917648698910844,-86.73525507050987 A 87.3004251299008,87.3004251299008 0 0 0 -15.929353144105612,-85.8348410394741" stroke-width="7.0037523452157595" stroke="#4b9945" fill="none"/>
<polygon points="-10.435717753725404 -89.19388495962676 -10.726454997798427 -91.67881076092785 -0.16044896325452498 -87.30027768565003 -9.563506021506337 -81.73910755572348 -9.85424326557936 -84.22403335702458" stroke-width="2.0" stroke="#4b9945" fill="#000000"/>
<polygon points="-16.15460667402339 -88.33731942069643 -16.660656895472624 -88.24327640697558 -15.732331008447417 -83.32639237542358 -15.254477725669542 -83.41519534580888" stroke-width="2.0" stroke="#4b9945" fill="#000000"/>
<path d="M -9.917648698910844,-86.73525507050987 A 87.3004251299008,87.3004251299008 0 0 0 -15.929353144105612,-85.8348410394741" stroke-width="5.0037523452157595" stroke="#7eff74" fill="none"/>
<polygon points="-10.435717753725404 -89.19388495962676 -10.726454997798427 -91.67881076092785 -0.16044896325452498 -87.30027768565003 -9.563506021506337 -81.73910755572348 -9.85424326557936 -84.22403335702458" stroke-width="1.0" stroke="none" fill="#7eff74"/>
<polygon points="-16.15460667402339 -88.33731942069643 -16.660656895472624 -88.24327640697558 -15.732331008447417 -83.32639237542358 -15.254477725669542 -83.41519534580888" stroke-width="1.0" stroke="none" fill="#7eff74"/>
<path d="M -19.800987299130966,-85.02520290973183 A 87.3004251299008,87.3004251299008 0 0 0 -67.99628935758835,-54.752797750074215" stroke-width="7.0037523452157595" stroke="#5c5c5c" fill="none"/>
<polygon points="-19.449963621722368 -82.53782660317681 -18.976569029717393 -82.64795056819483 -20.09632936706018 -87.52480142906458 -20.597657801437272 -87.40817932162552" stroke-width="2.0" stroke="#5c5c5c" fill="#000000"/>
<polygon points="-65.90818110785783 -53.35640138086729 -63.96364184484851 -51.78218683460042 -73.69046821113346 -46.80896412745473 -71.7417988968858 -58.0790450196679 -69.79725963387648 -56.50483047340103" stroke-width="2.0" stroke="#5c5c5c" fill="#000000"/>
<path d="M -19.800987299130966,-85.02520290973183 A 87.3004251299008,87.3004251299008 0 0 0 -67.99628935758835,-54.752797750074215" stroke-width="5.0037523452157595" stroke="#999999" fill="none"/>
<polygon points="-19.449963621722368 -82.53782660317681 -18.976569029717393 -82.64795056819483 -20.09632936706018 -87.52480142906458 -20.597657801437272 -87.40817932162552" stroke-width="1.0" stroke="none" fill="#999999"/>
<polygon points="-65.90818110785783 -53.35640138086729 -63.96364184484851 -51.78218683460042 -73.69046821113346 -46.80896412745473 -71.7417988968858 -58.0790450196679 -69.79725963387648 -56.50483047340103" stroke-width="1.0" stroke="none" fill="#999999"/>
<path d="M -54.835436460617075,67.92966315266875 A 87.3004251299008,87.3004251299008 0 0 0 17.55453099602894,85.51726532911863" stroke-width="7.0037523452157595" stroke="#4b9945" fill="none"/>
<polygon points="-56.22341811894892 70.0241427955273 -57.789792566977006 71.97500298314398 -62.084682040592654 61.37472186315737 -51.52429477486468 64.17156223267727 -53.090669222892764 66.12242242029394" stroke-width="2.0" stroke="#4b9945" fill="#000000"/>
<polygon points="17.82744392240296 88.01497351257983 18.331619103191816 87.9113477332821 17.310187795210005 83.01295864958053 16.834105076492623 83.11081043724703" stroke-width="2.0" stroke="#4b9945" fill="#000000"/>
<path d="M -54.835436460617075,67.92966315266875 A 87.3004251299008,87.3004251299008 0 0 0 17.55453099602894,85.51726532911863" stroke-width="5.0037523452157595" stroke="#7eff74" fill="none"/>
<polygon points="-56.22341811894892 70.0241427955273 -57.789792566977006 71.97500298314398 -62.084682040592654 61.37472186315737 -51.52429477486468 64.17156223267727 -53.090669222892764 66.12242242029394" stroke-width="1.0" stroke="none" fill="#7eff74"/>
<polygon points="17.82744392240296 88.01497351257983 18.331619103191816 87.9113477332821 17.310187795210005 83.01295864958053 16.834105076492623 83.11081043724703" stroke-width="1.0" stroke="none" fill="#7eff74"/>
<path d="M 14.782739840257113,86.03972821131346 A 87.3004251299008,87.3004251299008 0 0 0 15.233375506264826,85.96108711822197" stroke-width="7.0037523452157595" stroke="#5c5c5c" fill="none"/>
<polygon points="15.43858013503396 88.46526754970385 15.868696236943476 90.92989419930846 13.032991174084342 86.32210243568942 14.148231829305415 81.07138760089005 14.57834793121493 83.53601425049465" stroke-width="2.0" stroke="#5c5c5c" fill="#000000"/>
<polygon points="15.43858013503396 88.46526754970385 15.539980309184275 88.44751172993347 14.674098123662652 83.51924777869785 14.57834793121493 83.53601425049465" stroke-width="2.0" stroke="#5c5c5c" fill="#000000"/>
<path d="M 14.782739840257113,86.03972821131346 A 87.3004251299008,87.3004251299008 0 0 0 15.233375506264826,85.96108711822197" stroke-width="5.0037523452157595" stroke="#999999" fill="none"/>
<polygon points="15.43858013503396 88.46526754970385 15.868696236943476 90.92989419930846 13.032991174084342 86.32210243568942 14.148231829305415 81.07138760089005 14.57834793121493 83.53601425049465" stroke-width="1.0" stroke="none" fill="#999999"/>
<polygon points="15.43858013503396 88.46526754970385 15.539980309184275 88.44751172993347 14.674098123662652 83.51924777869785 14.57834793121493 83.53601425049465" stroke-width="1.0" stroke="none" fill="#999999"/>
<path d="M -83.10615475998722,-26.734458454782086 A 87.3004251299008,87.3004251299008 0 0 0 -69.16064383550639,53.27447392625897" stroke-width="7.0037523452157595" stroke="#8c7d15" fill="none"/>
<polygon points="-80.79229927072191 -25.756519248774893 -80.64334571663812 -26.219166594100347 -85.40190981021593 -27.76629467527666 -85.55965274459855 -27.276347655986903" stroke-width="2.0" stroke="#8c7d15" fill="#000000"/>
<polygon points="-67.31380253803782 51.57175479981709 -65.3277921554502 50.050194040820855 -62.772064681000195 60.67150998241055 -73.27183368580069 56.13643707680581 -71.28582330321306 54.614876317809575" stroke-width="2.0" stroke="#8c7d15" fill="#000000"/>
<path d="M -83.10615475998722,-26.734458454782086 A 87.3004251299008,87.3004251299008 0 0 0 -69.16064383550639,53.27447392625897" stroke-width="5.0037523452157595" stroke="#e9d024" fill="none"/>
<polygon points="-80.79229927072191 -25.756519248774893 -80.64334571663812 -26.219166594100347 -85.40190981021593 -27.76629467527666 -85.55965274459855 -27.276347655986903" stroke-width="1.0" stroke="none" fill="#e9d024"/>
<polygon points="-67.31380253803782 51.57175479981709 -65.3277921554502 50.050194040820855 -62.772064681000195 60.67150998241055 -73.27183368580069 56.13643707680581 -71.28582330321306 54.614876317809575" stroke-width="1.0" stroke="none" fill="#e9d024"/>
<path d="M 54.23172494671091,-68.41260291178598 A 87.3004251299008,87.3004251299008 0 0 0 9.467303187530462,-86.78556560982241" stroke-width="7.0037523452157595" stroke="#021e99" fill="none"/>
<polygon points="55.60129077405413 -70.51914480115053 57.15033286469332 -72.48379565677125 61.538898360396004 -61.921952621427124 50.954164502136564 -64.62519223428838 52.503206592775754 -66.5898430899091" stroke-width="2.0" stroke="#021e99" fill="#000000"/>
<polygon points="9.97236620907618 -89.24687799255854 9.460673589759756 -89.30256980879427 8.933528216250728 -84.32666232498389 9.416709504489909 -84.27407363697601" stroke-width="2.0" stroke="#021e99" fill="#000000"/>
<path d="M 54.23172494671091,-68.41260291178598 A 87.3004251299008,87.3004251299008 0 0 0 9.467303187530462,-86.78556560982241" stroke-width="5.0037523452157595" stroke="#0432ff" fill="none"/>
<polygon points="55.60129077405413 -70.51914480115053 57.15033286469332 -72.48379565677125 61.538898360396004 -61.921952621427124 50.954164502136564 -64.62519223428838 52.503206592775754 -66.5898430899091" stroke-width="1.0" stroke="none" fill="#0432ff"/>
<polygon points="9.97236620907618 -89.24687799255854 9.460673589759756 -89.30256980879427 8.933528216250728 -84.32666232498389 9.416709504489909 -84.27407363697601" stroke-width="1.0" stroke="none" fill="#0432ff"/>
<path d="M 5.071872779842058,-87.15297088663422 A 87.3004251299008,87.3004251299008 0 0 0 4.615131275702521,-87.17835047286367" stroke-width="7.0037523452157595" stroke="#8c7d15" fill="none"/>
<polygon points="4.98221057146146 -89.66398885309626 5.121014073541716 -92.1620116654167 6.840377392354253 -87.0320255135521 4.565800065220693 -82.16992041613494 4.704603567300948 -84.66794322845539" stroke-width="2.0" stroke="#8c7d15" fill="#000000"/>
<polygon points="4.98221057146146 -89.66398885309626 4.8794228509144615 -89.66964119404363 4.607543142049133 -84.67328062297197 4.704603567300948 -84.66794322845539" stroke-width="2.0" stroke="#8c7d15" fill="#000000"/>
<path d="M 5.071872779842058,-87.15297088663422 A 87.3004251299008,87.3004251299008 0 0 0 4.615131275702521,-87.17835047286367" stroke-width="5.0037523452157595" stroke="#e9d024" fill="none"/>
<polygon points="4.98221057146146 -89.66398885309626 5.121014073541716 -92.1620116654167 6.840377392354253 -87.0320255135521 4.565800065220693 -82.16992041613494 4.704603567300948 -84.66794322845539" stroke-width="1.0" stroke="none" fill="#e9d024"/>
<polygon points="4.98221057146146 -89.66398885309626 4.8794228509144615 -89.66964119404363 4.607543142049133 -84.67328062297197 4.704603567300948 -84.66794322845539" stroke-width="1.0" stroke="none" fill="#e9d024"/>
<path d="M 63.345357056396765,-60.07270567619724 A 87.3004251299008,87.3004251299008 0 0 0 63.02971313404232,-60.403803606244445" stroke-width="7.0037523452157595" stroke="#8c7d15" fill="none"/>
<polygon points="64.99856159592119 -61.964831232625755 66.80940998345665 -63.69116043078678 64.552049679335 -58.77411938989883 59.56601643331483 -56.785843638142666 61.37686482085028 -58.5121728363037" stroke-width="2.0" stroke="#8c7d15" fill="#000000"/>
<polygon points="64.99856159592119 -61.964831232625755 64.92748679521615 -62.03930026752062 61.30975028280618 -58.58249248301367 61.37686482085028 -58.5121728363037" stroke-width="2.0" stroke="#8c7d15" fill="#000000"/>
<path d="M 63.345357056396765,-60.07270567619724 A 87.3004251299008,87.3004251299008 0 0 0 63.02971313404232,-60.403803606244445" stroke-width="5.0037523452157595" stroke="#e9d024" fill="none"/>
<polygon points="64.99856159592119 -61.964831232625755 66.80940998345665 -63.69116043078678 64.552049679335 -58.77411938989883 59.56601643331483 -56.785843638142666 61.37686482085028 -58.5121728363037" stroke-width="1.0" stroke="none" fill="#e9d024"/>
<polygon points="64.99856159592119 -61.964831232625755 64.92748679521615 -62.03930026752062 61.30975028280618 -58.58249248301367 61.37686482085028 -58.5121728363037" stroke-width="1.0" stroke="none" fill="#e9d024"/>
<text x="-35" y="-12.0"  font-weight="normal" font-style="roman" font-family="Arial" font-size="14.0" fill="#000000" >pICH47732</text>
<text x="-25" y="22.0"  font-weight="normal" font-style="roman" font-family="Arial" font-size="14.0" fill="#000000" >4968 bp</text>
<text x="72" y="-79.0"  font-weight="normal" font-style="roman" font-family="Arial" font-size="14.0" fill="#e9d024" >CGCT</text>
<text x="79" y="-60.0"  font-weight="normal" font-style="roman" font-family="Arial" font-size="14.0" fill="#7eff74" >RB\short</text>
</svg>

