<svg id="svgbox" width="330px" height="229px" xmlns="http://www.w3.org/2000/svg" version="1.1" preserveAspectRatio="xMidYMid meet" viewBox="-153 -123 330 229">
<line x1="91.09203978478051" y1="-30.191025726521357" x2="91.09203978478051" y2="-30.191025726521357" stroke-width="1.0" stroke="#1f4286"/>
<line x1="44.32247769827198" y1="-84.60532913657532" x2="44.32247769827198" y2="-84.60532913657532" stroke-width="1.0" stroke="#8c7d15"/>
<line x1="42.933158810413154" y1="-85.30823584680824" x2="42.933158810413154" y2="-104.30823584680824" stroke-width="1.0" stroke="#000000"/>
<line x1="82.70371272163071" y1="49.2982250437958" x2="82.70371272163071" y2="49.2982250437958" stroke-width="1.0" stroke="#997f17"/>
<line x1="78.35177581418255" y1="55.975102405298124" x2="78.35177581418255" y2="67.97510240529812" stroke-width="1.0" stroke="#8c7d15"/>
<line x1="77.89774214668661" y1="56.60659692122276" x2="77.89774214668661" y2="86.60659692122276" stroke-width="1.0" stroke="#000000"/>
<line x1="-95.01296802613565" y1="7.3838132769302245" x2="-95.01296802613565" y2="7.3838132769302245" stroke-width="1.0" stroke="#008651"/>
<line x1="-48.61824253278004" y1="82.59811328766095" x2="-48.61824253278004" y2="82.59811328766095" stroke-width="1.0" stroke="#8c7d15"/>
<line x1="-55.65275994956924" y1="-77.11096435161576" x2="-55.65275994956924" y2="-77.11096435161576" stroke-width="1.0" stroke="#4b9945"/>
<line x1="-2.635760404663303" y1="-95.21702028055381" x2="-2.635760404663303" y2="-95.21702028055381" stroke-width="1.0" stroke="#5c5c5c"/>
<line x1="81.59981283730542" y1="-27.044976207262692" x2="91.09203978478051" y2="-30.191025726521357" stroke-width="1.0" stroke="#1f4286"/>
<line x1="39.68196406620268" y1="-75.74724620455335" x2="44.32247769827198" y2="-84.60532913657532" stroke-width="1.0" stroke="#8c7d15"/>
<line x1="38.43766361634071" y1="-76.37568173501741" x2="42.933158810413154" y2="-85.30823584680824" stroke-width="1.0" stroke="#000000"/>
<line x1="74.11397294694481" y1="44.17803260569555" x2="82.70371272163071" y2="49.2982250437958" stroke-width="1.0" stroke="#997f17"/>
<line x1="70.21491012393123" y1="50.162063893572004" x2="78.35177581418255" y2="55.975102405298124" stroke-width="1.0" stroke="#8c7d15"/>
<line x1="69.80809443558117" y1="50.72802567386966" x2="77.89774214668661" y2="56.60659692122276" stroke-width="1.0" stroke="#000000"/>
<line x1="-85.04302905934829" y1="6.609012013034346" x2="-95.01296802613565" y2="7.3838132769302245" stroke-width="1.0" stroke="#008651"/>
<line x1="-43.54562945395669" y1="73.98019030398615" x2="-48.61824253278004" y2="82.59811328766095" stroke-width="1.0" stroke="#8c7d15"/>
<line x1="-49.800514871234654" y1="-69.00225128830488" x2="-55.65275994956924" y2="-77.11096435161576" stroke-width="1.0" stroke="#4b9945"/>
<line x1="-2.3590503035882002" y1="-85.22084943767787" x2="-2.635760404663303" y2="-95.21702028055381" stroke-width="1.0" stroke="#5c5c5c"/>
<ellipse cx="0.0" cy="0.0" rx="85.69467185154863" ry="85.69467185154863" stroke-width="3.0" stroke="#000000" fill="none"/>
<ellipse cx="0.0" cy="0.0" rx="85.69467185154863" ry="85.69467185154863" stroke-width="1.0" stroke="#ffffff" fill="none"/>
<line x1="0.0" y1="-1.3711147496247784" x2="0.0" y2="1.3711147496247784" stroke-width="3.0" stroke="#000000"/>
<line x1="-1.3711147496247784" y1="0.0" x2="1.3711147496247784" y2="0.0" stroke-width="3.0" stroke="#000000"/>
<line x1="0.0" y1="-1.3711147496247784" x2="0.0" y2="1.3711147496247784" stroke-width="1.0" stroke="#ffffff"/>
<line x1="-1.3711147496247784" y1="0.0" x2="1.3711147496247784" y2="0.0" stroke-width="1.0" stroke="#ffffff"/>
<path d="M 93.0 -48.0 C 153.0 -48.0, 93.0 -48.0, 153.0 -48.0 C 155.76142374915395 -48.0, 158.0 -45.76142374915397, 158.0 -43.0 C 158.0 -33.0, 158.0 -43.0, 158.0 -33.0 C 158.0 -30.23857625084603, 155.76142374915395 -28.0, 153.0 -28.0 C 93.0 -28.0, 153.0 -28.0, 93.0 -28.0 C 90.23857625084604 -28.0, 88.0 -30.23857625084603, 88.0 -33.0 C 88.0 -43.0, 88.0 -33.0, 88.0 -43.0 C 88.0 -45.76142374915397, 90.23857625084604 -48.0, 93.0 -48.0 z" stroke-width="2.0" stroke="#ffffff" fill="none"/>
<path d="M 46.0 -103.0 C 85.0 -103.0, 46.0 -103.0, 85.0 -103.0 C 87.76142374915398 -103.0, 90.0 -100.76142374915396, 90.0 -98.0 C 90.0 -88.0, 90.0 -98.0, 90.0 -88.0 C 90.0 -85.23857625084602, 87.76142374915398 -83.0, 85.0 -83.0 C 46.0 -83.0, 85.0 -83.0, 46.0 -83.0 C 43.23857625084603 -83.0, 41.0 -85.23857625084602, 41.0 -88.0 C 41.0 -98.0, 41.0 -88.0, 41.0 -98.0 C 41.0 -100.76142374915396, 43.23857625084603 -103.0, 46.0 -103.0 z" stroke-width="2.0" stroke="#ffffff" fill="none"/>
<text x="44" y="-88.0"  font-weight="normal" font-style="roman" font-family="Arial" font-size="14.0" fill="#e9d024" >GGAG</text>
<path d="M 41.0 -121.0 C 122.0 -121.0, 41.0 -121.0, 122.0 -121.0 C 122.0 -103.0, 122.0 -121.0, 122.0 -103.0 C 41.0 -103.0, 122.0 -103.0, 41.0 -103.0 C 41.0 -121.0, 41.0 -103.0, 41.0 -121.0 z" stroke-width="1.0" stroke="#ffffff" fill="#ffffff"/>
<text x="43" y="-107.0"  font-weight="normal" font-style="roman" font-family="Arial" font-size="14.0" fill="#000000" >226 BsaI (2)</text>
<path d="M 85.0 47.0 C 170.0 47.0, 85.0 47.0, 170.0 47.0 C 172.76142374915395 47.0, 175.0 49.23857625084603, 175.0 52.0 C 175.0 62.0, 175.0 52.0, 175.0 62.0 C 175.0 64.76142374915398, 172.76142374915395 67.0, 170.0 67.0 C 85.0 67.0, 170.0 67.0, 85.0 67.0 C 82.23857625084604 67.0, 80.0 64.76142374915398, 80.0 62.0 C 80.0 52.0, 80.0 62.0, 80.0 52.0 C 80.0 49.23857625084603, 82.23857625084604 47.0, 85.0 47.0 z" stroke-width="2.0" stroke="#ffffff" fill="none"/>
<text x="83" y="62.0"  font-weight="normal" font-style="roman" font-family="Arial" font-size="14.0" fill="#ffd327" >Omega\leader</text>
<path d="M 80.0 66.0 C 115.0 66.0, 80.0 66.0, 115.0 66.0 C 117.76142374915398 66.0, 120.0 68.23857625084604, 120.0 71.0 C 120.0 81.0, 120.0 71.0, 120.0 81.0 C 120.0 83.76142374915398, 117.76142374915398 86.0, 115.0 86.0 C 80.0 86.0, 115.0 86.0, 80.0 86.0 C 77.23857625084604 86.0, 75.0 83.76142374915398, 75.0 81.0 C 75.0 71.0, 75.0 81.0, 75.0 71.0 C 75.0 68.23857625084604, 77.23857625084604 66.0, 80.0 66.0 z" stroke-width="2.0" stroke="#ffffff" fill="none"/>
<text x="78" y="81.0"  font-weight="normal" font-style="roman" font-family="Arial" font-size="14.0" fill="#e9d024" >AATG</text>
<path d="M 76.0 86.0 C 165.0 86.0, 76.0 86.0, 165.0 86.0 C 165.0 104.0, 165.0 86.0, 165.0 104.0 C 76.0 104.0, 165.0 104.0, 76.0 104.0 C 76.0 86.0, 76.0 104.0, 76.0 86.0 z" stroke-width="1.0" stroke="#ffffff" fill="#ffffff"/>
<text x="78" y="100.0"  font-weight="normal" font-style="roman" font-family="Arial" font-size="14.0" fill="#000000" >1081 BsaI (2)</text>
<path d="M -133.0 5.0 C -97.0 5.0, -133.0 5.0, -97.0 5.0 C -94.23857625084602 5.0, -92.0 7.238576250846032, -92.0 10.0 C -92.0 20.0, -92.0 10.0, -92.0 20.0 C -92.0 22.76142374915397, -94.23857625084602 25.0, -97.0 25.0 C -133.0 25.0, -97.0 25.0, -133.0 25.0 C -135.76142374915398 25.0, -138.0 22.76142374915397, -138.0 20.0 C -138.0 10.0, -138.0 20.0, -138.0 10.0 C -138.0 7.238576250846032, -135.76142374915398 5.0, -133.0 5.0 z" stroke-width="2.0" stroke="#ffffff" fill="none"/>
<text x="-135" y="20.0"  font-weight="normal" font-style="roman" font-family="Arial" font-size="14.0" fill="#00df87" >G\to\A</text>
<path d="M -147.0 81.0 C -51.0 81.0, -147.0 81.0, -51.0 81.0 C -48.23857625084604 81.0, -46.0 83.23857625084604, -46.0 86.0 C -46.0 96.0, -46.0 86.0, -46.0 96.0 C -46.0 98.76142374915398, -48.23857625084604 101.0, -51.0 101.0 C -147.0 101.0, -51.0 101.0, -147.0 101.0 C -149.76142374915398 101.0, -152.0 98.76142374915398, -152.0 96.0 C -152.0 86.0, -152.0 96.0, -152.0 86.0 C -152.0 83.23857625084604, -149.76142374915398 81.0, -147.0 81.0 z" stroke-width="2.0" stroke="#ffffff" fill="none"/>
<text x="-149" y="96.0"  font-weight="normal" font-style="roman" font-family="Arial" font-size="14.0" fill="#e9d024" >Sm/Sp\no\DraIII</text>
<path d="M -125.0 -95.0 C -58.0 -95.0, -125.0 -95.0, -58.0 -95.0 C -55.23857625084604 -95.0, -53.0 -92.76142374915396, -53.0 -90.0 C -53.0 -80.0, -53.0 -90.0, -53.0 -80.0 C -53.0 -77.23857625084602, -55.23857625084604 -75.0, -58.0 -75.0 C -125.0 -75.0, -58.0 -75.0, -125.0 -75.0 C -127.76142374915396 -75.0, -130.0 -77.23857625084602, -130.0 -80.0 C -130.0 -90.0, -130.0 -80.0, -130.0 -90.0 C -130.0 -92.76142374915396, -127.76142374915396 -95.0, -125.0 -95.0 z" stroke-width="2.0" stroke="#ffffff" fill="none"/>
<text x="-127" y="-80.0"  font-weight="normal" font-style="roman" font-family="Arial" font-size="14.0" fill="#7eff74" >rep\(pMB1)</text>
<path d="M -26.0 -113.0 C -5.0 -113.0, -26.0 -113.0, -5.0 -113.0 C -2.2385762508460303 -113.0, 0.0 -110.76142374915396, 0.0 -108.0 C 0.0 -98.0, 0.0 -108.0, 0.0 -98.0 C 0.0 -95.23857625084602, -2.2385762508460303 -93.0, -5.0 -93.0 C -26.0 -93.0, -5.0 -93.0, -26.0 -93.0 C -28.76142374915397 -93.0, -31.0 -95.23857625084602, -31.0 -98.0 C -31.0 -108.0, -31.0 -98.0, -31.0 -108.0 C -31.0 -110.76142374915396, -28.76142374915397 -113.0, -26.0 -113.0 z" stroke-width="2.0" stroke="#ffffff" fill="none"/>
<text x="-28" y="-98.0"  font-weight="normal" font-style="roman" font-family="Arial" font-size="14.0" fill="#999999" >ORI</text>
<path d="M 81.25090342654799,27.2372442826798 A 85.69467185154863,85.69467185154863 0 0 0 39.851824780134315,-75.86441092790528" stroke-width="7.0037523452157595" stroke="#1f4286" fill="none"/>
<polygon points="83.69619188298329 27.81328005942824 86.07040621337522 28.602260855407856 77.61932672144154 36.315518763398025 76.57354889180749 25.446337671489392 78.94776322219943 26.235318467469007" stroke-width="2.0" stroke="#1f4286" fill="#000000"/>
<polygon points="41.219660109433484 -77.9716019063359 40.76368015272196 -78.21095488346839 38.450989183139555 -73.77372624258632 38.881099524442305 -73.54795274274053" stroke-width="2.0" stroke="#1f4286" fill="#000000"/>
<path d="M 81.25090342654799,27.2372442826798 A 85.69467185154863,85.69467185154863 0 0 0 39.851824780134315,-75.86441092790528" stroke-width="5.0037523452157595" stroke="#346ee0" fill="none"/>
<polygon points="83.69619188298329 27.81328005942824 86.07040621337522 28.602260855407856 77.61932672144154 36.315518763398025 76.57354889180749 25.446337671489392 78.94776322219943 26.235318467469007" stroke-width="1.0" stroke="none" fill="#346ee0"/>
<polygon points="41.219660109433484 -77.9716019063359 40.76368015272196 -78.21095488346839 38.450989183139555 -73.77372624258632 38.881099524442305 -73.54795274274053" stroke-width="1.0" stroke="none" fill="#346ee0"/>
<path d="M -85.08019789201477,10.243862084204785 A 85.69467185154863,85.69467185154863 0 0 0 39.891441726553616,75.84358681339893" stroke-width="7.0037523452157595" stroke="#8c7d15" fill="none"/>
<polygon points="-87.53618213351591 10.772553126593321 -90.01932567175193 11.078138714571146 -85.69329562957252 0.4856623181699699 -80.08675151880786 9.855796362659847 -82.56989505704388 10.161381950637672" stroke-width="2.0" stroke="#8c7d15" fill="#000000"/>
<polygon points="40.85177583782029 78.16497613556744 41.30748582219409 77.92510955030208 38.963942523865015 73.50409808898362 38.53408683826064 73.73035605786379" stroke-width="2.0" stroke="#8c7d15" fill="#000000"/>
<path d="M -85.08019789201477,10.243862084204785 A 85.69467185154863,85.69467185154863 0 0 0 39.891441726553616,75.84358681339893" stroke-width="5.0037523452157595" stroke="#e9d024" fill="none"/>
<polygon points="-87.53618213351591 10.772553126593321 -90.01932567175193 11.078138714571146 -85.69329562957252 0.4856623181699699 -80.08675151880786 9.855796362659847 -82.56989505704388 10.161381950637672" stroke-width="1.0" stroke="none" fill="#e9d024"/>
<polygon points="40.85177583782029 78.16497613556744 41.30748582219409 77.92510955030208 38.963942523865015 73.50409808898362 38.53408683826064 73.73035605786379" stroke-width="1.0" stroke="none" fill="#e9d024"/>
<path d="M -9.98442572423826,-85.11103351917289 A 85.69467185154863,85.69467185154863 0 0 0 -81.23417194521589,-27.287104868778222" stroke-width="7.0037523452157595" stroke="#4b9945" fill="none"/>
<polygon points="-10.505510183998933 -87.5686321644414 -10.80352055060917 -90.05269621443203 -0.2242881865453194 -85.69437833693631 -9.611479084168218 -80.11644001446949 -9.909489450778455 -82.60050406446013" stroke-width="2.0" stroke="#4b9945" fill="#000000"/>
<polygon points="-83.5320249710574 -28.302506737248383 -83.69585971885367 -27.81427959339079 -78.94744990310488 -26.236261293765317 -78.79291017333233 -26.696789306865476" stroke-width="2.0" stroke="#4b9945" fill="#000000"/>
<path d="M -9.98442572423826,-85.11103351917289 A 85.69467185154863,85.69467185154863 0 0 0 -81.23417194521589,-27.287104868778222" stroke-width="5.0037523452157595" stroke="#7eff74" fill="none"/>
<polygon points="-10.505510183998933 -87.5686321644414 -10.80352055060917 -90.05269621443203 -0.2242881865453194 -85.69437833693631 -9.611479084168218 -80.11644001446949 -9.909489450778455 -82.60050406446013" stroke-width="1.0" stroke="none" fill="#7eff74"/>
<polygon points="-83.5320249710574 -28.302506737248383 -83.69585971885367 -27.81427959339079 -78.94744990310488 -26.236261293765317 -78.79291017333233 -26.696789306865476" stroke-width="1.0" stroke="none" fill="#7eff74"/>
<path d="M -1.612575864846945,-85.67949803088668 A 85.69467185154863,85.69467185154863 0 0 0 -2.061504768881524,-85.66987207783423" stroke-width="7.0037523452157595" stroke="#5c5c5c" fill="none"/>
<polygon points="-1.7835254217255883 -83.17367546254069 -1.6863932241177124 -83.17570156464947 -1.787823810519691 -88.17842575936523 -1.890798166184763 -88.17627779438241" stroke-width="2.0" stroke="#5c5c5c" fill="#000000"/>
<polygon points="-1.7835254217255883 -83.17367546254069 -1.729889049496001 -80.67237429661981 -3.837519726112066 -85.60870414914771 -1.9444345384143502 -90.6775789603033 -1.890798166184763 -88.17627779438241" stroke-width="2.0" stroke="#5c5c5c" fill="#000000"/>
<path d="M -1.612575864846945,-85.67949803088668 A 85.69467185154863,85.69467185154863 0 0 0 -2.061504768881524,-85.66987207783423" stroke-width="5.0037523452157595" stroke="#999999" fill="none"/>
<polygon points="-1.7835254217255883 -83.17367546254069 -1.6863932241177124 -83.17570156464947 -1.787823810519691 -88.17842575936523 -1.890798166184763 -88.17627779438241" stroke-width="1.0" stroke="none" fill="#999999"/>
<polygon points="-1.7835254217255883 -83.17367546254069 -1.729889049496001 -80.67237429661981 -3.837519726112066 -85.60870414914771 -1.9444345384143502 -90.6775789603033 -1.890798166184763 -88.17627779438241" stroke-width="1.0" stroke="none" fill="#999999"/>
<path d="M -85.41607757382758,6.904380902475701 A 85.69467185154863,85.69467185154863 0 0 0 -85.37872676715362,7.351856865059925" stroke-width="7.0037523452157595" stroke="#008651" fill="none"/>
<polygon points="-87.89088115267256 7.336490549583847 -90.38408645686604 7.544605167533967 -85.54086075535479 5.132048808965605 -80.4112652400921 6.712146695733488 -82.90447054428559 6.920261313683608" stroke-width="2.0" stroke="#008651" fill="#000000"/>
<polygon points="-87.89088115267256 7.336490549583847 -87.88225359982866 7.439125324441697 -82.89633246794324 7.017073196297932 -82.90447054428559 6.920261313683608" stroke-width="2.0" stroke="#008651" fill="#000000"/>
<path d="M -85.41607757382758,6.904380902475701 A 85.69467185154863,85.69467185154863 0 0 0 -85.37872676715362,7.351856865059925" stroke-width="5.0037523452157595" stroke="#00df87" fill="none"/>
<polygon points="-87.89088115267256 7.336490549583847 -90.38408645686604 7.544605167533967 -85.54086075535479 5.132048808965605 -80.4112652400921 6.712146695733488 -82.90447054428559 6.920261313683608" stroke-width="1.0" stroke="none" fill="#00df87"/>
<polygon points="-87.89088115267256 7.336490549583847 -87.88225359982866 7.439125324441697 -82.89633246794324 7.017073196297932 -82.90447054428559 6.920261313683608" stroke-width="1.0" stroke="none" fill="#00df87"/>
<path d="M 75.92902175598911,39.72858465794036 A 85.69467185154863,85.69467185154863 0 0 0 76.14595108644727,39.31120599631843" stroke-width="7.0037523452157595" stroke="#997f17" fill="none"/>
<polygon points="78.25284458814146 40.68320780422221 80.4726471960648 41.83727052561988 70.90940418347024 48.1189482645855 71.59343676437145 37.2210196400292 73.81323937229477 38.37508236142686" stroke-width="2.0" stroke="#997f17" fill="#000000"/>
<polygon points="78.26298003471061 40.66370666163914 78.49908182468407 40.20603482139095 74.04550655924439 37.92498136140453 73.82279979335924 38.35668759874324" stroke-width="2.0" stroke="#997f17" fill="#000000"/>
<path d="M 75.92902175598911,39.72858465794036 A 85.69467185154863,85.69467185154863 0 0 0 76.14595108644727,39.31120599631843" stroke-width="5.0037523452157595" stroke="#ffd327" fill="none"/>
<polygon points="78.25284458814146 40.68320780422221 80.4726471960648 41.83727052561988 70.90940418347024 48.1189482645855 71.59343676437145 37.2210196400292 73.81323937229477 38.37508236142686" stroke-width="1.0" stroke="none" fill="#ffd327"/>
<polygon points="78.26298003471061 40.66370666163914 78.49908182468407 40.20603482139095 74.04550655924439 37.92498136140453 73.82279979335924 38.35668759874324" stroke-width="1.0" stroke="none" fill="#ffd327"/>
<path d="M 38.528826796092055,-76.5447992319618 A 85.69467185154863,85.69467185154863 0 0 0 38.127211624288556,-76.74563516905256" stroke-width="7.0037523452157595" stroke="#8c7d15" fill="none"/>
<polygon points="39.44707638736885 -78.88320003566307 40.56607370306391 -81.12088397012081 40.10760973620642 -75.72949507947851 36.0900844402837 -72.17014823228982 37.209081755978744 -74.40783216674757" stroke-width="2.0" stroke="#8c7d15" fill="#000000"/>
<polygon points="39.44707638736885 -78.88320003566307 39.35492896396067 -78.92921290383526 37.12216223430043 -74.45123453595825 37.209081755978744 -74.40783216674757" stroke-width="2.0" stroke="#8c7d15" fill="#000000"/>
<path d="M 38.528826796092055,-76.5447992319618 A 85.69467185154863,85.69467185154863 0 0 0 38.127211624288556,-76.74563516905256" stroke-width="5.0037523452157595" stroke="#e9d024" fill="none"/>
<polygon points="39.44707638736885 -78.88320003566307 40.56607370306391 -81.12088397012081 40.10760973620642 -75.72949507947851 36.0900844402837 -72.17014823228982 37.209081755978744 -74.40783216674757" stroke-width="1.0" stroke="none" fill="#e9d024"/>
<polygon points="39.44707638736885 -78.88320003566307 39.35492896396067 -78.92921290383526 37.12216223430043 -74.45123453595825 37.209081755978744 -74.40783216674757" stroke-width="1.0" stroke="none" fill="#e9d024"/>
<path d="M 70.2550693793616,49.06935917908129 A 85.69467185154863,85.69467185154863 0 0 0 70.51122288138534,48.70055678856457" stroke-width="7.0037523452157595" stroke="#8c7d15" fill="none"/>
<polygon points="72.43848852312706 50.311991253200624 74.49335498304907 51.73919418724701 69.22276685362422 50.51519902834576 66.273889143361 46.030382451061485 68.32875560328301 47.45758538510786" stroke-width="2.0" stroke="#8c7d15" fill="#000000"/>
<polygon points="72.43848852312706 50.311991253200624 72.49719393316074 50.22736261436614 68.38413041433394 47.377758076478784 68.32875560328301 47.45758538510786" stroke-width="2.0" stroke="#8c7d15" fill="#000000"/>
<path d="M 70.2550693793616,49.06935917908129 A 85.69467185154863,85.69467185154863 0 0 0 70.51122288138534,48.70055678856457" stroke-width="5.0037523452157595" stroke="#e9d024" fill="none"/>
<polygon points="72.43848852312706 50.311991253200624 74.49335498304907 51.73919418724701 69.22276685362422 50.51519902834576 66.273889143361 46.030382451061485 68.32875560328301 47.45758538510786" stroke-width="1.0" stroke="none" fill="#e9d024"/>
<polygon points="72.43848852312706 50.311991253200624 72.49719393316074 50.22736261436614 68.38413041433394 47.377758076478784 68.32875560328301 47.45758538510786" stroke-width="1.0" stroke="none" fill="#e9d024"/>
<text x="-35" y="-12.0"  font-weight="normal" font-style="roman" font-family="Arial" font-size="14.0" fill="#000000" >pICH51288</text>
<text x="-25" y="22.0"  font-weight="normal" font-style="roman" font-family="Arial" font-size="14.0" fill="#000000" >3090 bp</text>
<text x="91" y="-33.0"  font-weight="normal" font-style="roman" font-family="Arial" font-size="14.0" fill="#346ee0" >2x35S\pro</text>
</svg>

