<svg id="svgbox" width="388px" height="296px" xmlns="http://www.w3.org/2000/svg" version="1.1" preserveAspectRatio="xMidYMid meet" viewBox="-185 -190 388 296">
<line x1="98.45796961976383" y1="2.1668856052995173" x2="98.45796961976383" y2="2.1668856052995173" stroke-width="1.0" stroke="#8c7d15"/>
<line x1="48.42272347573253" y1="85.92796276588957" x2="48.42272347573253" y2="85.92796276588957" stroke-width="1.0" stroke="#008651"/>
<line x1="-92.18875236650777" y1="32.53907898563813" x2="-92.18875236650777" y2="32.53907898563813" stroke-width="1.0" stroke="#5c5c5c"/>
<line x1="-54.2867411588668" y1="81.77537257127308" x2="-54.2867411588668" y2="81.77537257127308" stroke-width="1.0" stroke="#4b9945"/>
<line x1="-95.61676468219162" y1="-19.144142348708478" x2="-95.61676468219162" y2="-19.144142348708478" stroke-width="1.0" stroke="#000000"/>
<line x1="-95.25555010222912" y1="-20.839159714148526" x2="-95.25555010222912" y2="-37.83915971414852" stroke-width="1.0" stroke="#4b9945"/>
<line x1="-95.01459445419712" y1="-21.89520801659102" x2="-95.01459445419712" y2="-56.89520801659102" stroke-width="1.0" stroke="#000000"/>
<line x1="-87.6075903131066" y1="-42.665292354367516" x2="-87.6075903131066" y2="-75.66529235436752" stroke-width="1.0" stroke="#1f4286"/>
<line x1="-84.55830559524686" y1="-48.40396784860424" x2="-84.55830559524686" y2="-95.40396784860424" stroke-width="1.0" stroke="#1f4286"/>
<line x1="-55.4953413641556" y1="-80.06890325973319" x2="-55.4953413641556" y2="-114.06890325973319" stroke-width="1.0" stroke="#8c7d15"/>
<line x1="-4.489746126702379" y1="-97.4688150572685" x2="-4.489746126702379" y2="-133.4688150572685" stroke-width="1.0" stroke="#000000"/>
<line x1="-2.5417777428372017" y1="-97.54748494715668" x2="-2.5417777428372017" y2="-151.54748494715668" stroke-width="1.0" stroke="#4b9945"/>
<line x1="-1.6755959610508575" y1="-97.57001146539814" x2="-1.6755959610508575" y2="-170.57001146539812" stroke-width="1.0" stroke="#000000"/>
<line x1="88.46039055120309" y1="1.9468565893125838" x2="98.45796961976383" y2="2.1668856052995173" stroke-width="1.0" stroke="#8c7d15"/>
<line x1="43.51331619754967" y1="77.21603300395249" x2="48.42272347573253" y2="85.92796276588957" stroke-width="1.0" stroke="#008651"/>
<line x1="-82.75890913732317" y1="29.21070751102755" x2="-92.18875236650777" y2="32.53907898563813" stroke-width="1.0" stroke="#5c5c5c"/>
<line x1="-48.75598451995466" y1="73.44406229010306" x2="-54.2867411588668" y2="81.77537257127308" stroke-width="1.0" stroke="#4b9945"/>
<line x1="-85.81136812646021" y1="-17.180931105655205" x2="-95.61676468219162" y2="-19.144142348708478" stroke-width="1.0" stroke="#000000"/>
<line x1="-85.48659292325662" y1="-18.701994387038397" x2="-95.25555010222912" y2="-20.839159714148526" stroke-width="1.0" stroke="#4b9945"/>
<line x1="-85.2699810542213" y1="-19.649654702814747" x2="-95.01459445419712" y2="-21.89520801659102" stroke-width="1.0" stroke="#000000"/>
<line x1="-78.61707235465403" y1="-38.28686948320239" x2="-87.6075903131066" y2="-42.665292354367516" stroke-width="1.0" stroke="#1f4286"/>
<line x1="-75.879631868809" y1="-43.43600827247671" x2="-84.55830559524686" y2="-48.40396784860424" stroke-width="1.0" stroke="#1f4286"/>
<line x1="-49.79886917233555" y1="-71.85001011236712" x2="-55.4953413641556" y2="-80.06890325973319" stroke-width="1.0" stroke="#8c7d15"/>
<line x1="-4.02959993182417" y1="-87.47940739318054" x2="-4.489746126702379" y2="-97.4688150572685" stroke-width="1.0" stroke="#000000"/>
<line x1="-2.2812979054502507" y1="-87.55087801008473" x2="-2.5417777428372017" y2="-97.54748494715668" stroke-width="1.0" stroke="#4b9945"/>
<line x1="-1.5038885986967534" y1="-87.57148574498747" x2="-1.6755959610508575" y2="-97.57001146539814" stroke-width="1.0" stroke="#000000"/>
<ellipse cx="0.0" cy="0.0" rx="88.03311944204404" ry="88.03311944204404" stroke-width="3.0" stroke="#000000" fill="none"/>
<ellipse cx="0.0" cy="0.0" rx="88.03311944204404" ry="88.03311944204404" stroke-width="1.0" stroke="#ffffff" fill="none"/>
<line x1="0.0" y1="-1.4085299110727048" x2="0.0" y2="1.4085299110727048" stroke-width="3.0" stroke="#000000"/>
<line x1="-1.4085299110727048" y1="0.0" x2="1.4085299110727048" y2="0.0" stroke-width="3.0" stroke="#000000"/>
<line x1="0.0" y1="-1.4085299110727048" x2="0.0" y2="1.4085299110727048" stroke-width="1.0" stroke="#ffffff"/>
<line x1="-1.4085299110727048" y1="0.0" x2="1.4085299110727048" y2="0.0" stroke-width="1.0" stroke="#ffffff"/>
<path d="M 100.0 0.0 C 196.0 0.0, 100.0 0.0, 196.0 0.0 C 198.76142374915395 0.0, 201.0 2.238576250846032, 201.0 5.0 C 201.0 15.0, 201.0 5.0, 201.0 15.0 C 201.0 17.76142374915397, 198.76142374915395 20.0, 196.0 20.0 C 100.0 20.0, 196.0 20.0, 100.0 20.0 C 97.23857625084604 20.0, 95.0 17.76142374915397, 95.0 15.0 C 95.0 5.0, 95.0 15.0, 95.0 5.0 C 95.0 2.238576250846032, 97.23857625084604 0.0, 100.0 0.0 z" stroke-width="2.0" stroke="#ffffff" fill="none"/>
<text x="98" y="15.0"  font-weight="normal" font-style="roman" font-family="Arial" font-size="14.0" fill="#e9d024" >Sm/Sp\no\DraIII</text>
<path d="M 50.0 84.0 C 86.0 84.0, 50.0 84.0, 86.0 84.0 C 88.76142374915398 84.0, 91.0 86.23857625084604, 91.0 89.0 C 91.0 99.0, 91.0 89.0, 91.0 99.0 C 91.0 101.76142374915398, 88.76142374915398 104.0, 86.0 104.0 C 50.0 104.0, 86.0 104.0, 50.0 104.0 C 47.23857625084603 104.0, 45.0 101.76142374915398, 45.0 99.0 C 45.0 89.0, 45.0 99.0, 45.0 89.0 C 45.0 86.23857625084604, 47.23857625084603 84.0, 50.0 84.0 z" stroke-width="2.0" stroke="#ffffff" fill="none"/>
<text x="48" y="99.0"  font-weight="normal" font-style="roman" font-family="Arial" font-size="14.0" fill="#00df87" >G\to\A</text>
<path d="M -115.0 31.0 C -94.0 31.0, -115.0 31.0, -94.0 31.0 C -91.23857625084602 31.0, -89.0 33.23857625084603, -89.0 36.0 C -89.0 46.0, -89.0 36.0, -89.0 46.0 C -89.0 48.76142374915397, -91.23857625084602 51.0, -94.0 51.0 C -115.0 51.0, -94.0 51.0, -115.0 51.0 C -117.76142374915396 51.0, -120.0 48.76142374915397, -120.0 46.0 C -120.0 36.0, -120.0 46.0, -120.0 36.0 C -120.0 33.23857625084603, -117.76142374915396 31.0, -115.0 31.0 z" stroke-width="2.0" stroke="#ffffff" fill="none"/>
<text x="-117" y="46.0"  font-weight="normal" font-style="roman" font-family="Arial" font-size="14.0" fill="#999999" >ORI</text>
<path d="M -123.0 80.0 C -56.0 80.0, -123.0 80.0, -56.0 80.0 C -53.23857625084604 80.0, -51.0 82.23857625084604, -51.0 85.0 C -51.0 95.0, -51.0 85.0, -51.0 95.0 C -51.0 97.76142374915398, -53.23857625084604 100.0, -56.0 100.0 C -123.0 100.0, -56.0 100.0, -123.0 100.0 C -125.76142374915396 100.0, -128.0 97.76142374915398, -128.0 95.0 C -128.0 85.0, -128.0 95.0, -128.0 85.0 C -128.0 82.23857625084604, -125.76142374915396 80.0, -123.0 80.0 z" stroke-width="2.0" stroke="#ffffff" fill="none"/>
<text x="-125" y="95.0"  font-weight="normal" font-style="roman" font-family="Arial" font-size="14.0" fill="#7eff74" >rep\(pMB1)</text>
<path d="M -183.0 -36.0 C -94.0 -36.0, -183.0 -36.0, -94.0 -36.0 C -94.0 -18.0, -94.0 -36.0, -94.0 -18.0 C -183.0 -18.0, -94.0 -18.0, -183.0 -18.0 C -183.0 -36.0, -183.0 -18.0, -183.0 -36.0 z" stroke-width="1.0" stroke="#ffffff" fill="#ffffff"/>
<text x="-181" y="-22.0"  font-weight="normal" font-style="roman" font-family="Arial" font-size="14.0" fill="#000000" >2225 BsaI (2)</text>
<path d="M -132.0 -56.0 C -97.0 -56.0, -132.0 -56.0, -97.0 -56.0 C -94.23857625084602 -56.0, -92.0 -53.76142374915397, -92.0 -51.0 C -92.0 -41.0, -92.0 -51.0, -92.0 -41.0 C -92.0 -38.23857625084603, -94.23857625084602 -36.0, -97.0 -36.0 C -132.0 -36.0, -97.0 -36.0, -132.0 -36.0 C -134.76142374915398 -36.0, -137.0 -38.23857625084603, -137.0 -41.0 C -137.0 -51.0, -137.0 -41.0, -137.0 -51.0 C -137.0 -53.76142374915397, -134.76142374915398 -56.0, -132.0 -56.0 z" stroke-width="2.0" stroke="#ffffff" fill="none"/>
<path d="M -182.0 -74.0 C -93.0 -74.0, -182.0 -74.0, -93.0 -74.0 C -93.0 -56.0, -93.0 -74.0, -93.0 -56.0 C -182.0 -56.0, -93.0 -56.0, -182.0 -56.0 C -182.0 -74.0, -182.0 -56.0, -182.0 -74.0 z" stroke-width="1.0" stroke="#ffffff" fill="#ffffff"/>
<text x="-180" y="-60.0"  font-weight="normal" font-style="roman" font-family="Arial" font-size="14.0" fill="#000000" >2238 BbsI (2)</text>
<path d="M -153.0 -94.0 C -90.0 -94.0, -153.0 -94.0, -90.0 -94.0 C -87.23857625084604 -94.0, -85.0 -91.76142374915396, -85.0 -89.0 C -85.0 -79.0, -85.0 -89.0, -85.0 -79.0 C -85.0 -76.23857625084602, -87.23857625084604 -74.0, -90.0 -74.0 C -153.0 -74.0, -90.0 -74.0, -153.0 -74.0 C -155.76142374915398 -74.0, -158.0 -76.23857625084602, -158.0 -79.0 C -158.0 -89.0, -158.0 -79.0, -158.0 -89.0 C -158.0 -91.76142374915396, -155.76142374915398 -94.0, -153.0 -94.0 z" stroke-width="2.0" stroke="#ffffff" fill="none"/>
<path d="M -129.0 -113.0 C -87.0 -113.0, -129.0 -113.0, -87.0 -113.0 C -84.23857625084602 -113.0, -82.0 -110.76142374915396, -82.0 -108.0 C -82.0 -98.0, -82.0 -108.0, -82.0 -98.0 C -82.0 -95.23857625084602, -84.23857625084602 -93.0, -87.0 -93.0 C -129.0 -93.0, -87.0 -93.0, -129.0 -93.0 C -131.76142374915398 -93.0, -134.0 -95.23857625084602, -134.0 -98.0 C -134.0 -108.0, -134.0 -98.0, -134.0 -108.0 C -134.0 -110.76142374915396, -131.76142374915398 -113.0, -129.0 -113.0 z" stroke-width="2.0" stroke="#ffffff" fill="none"/>
<path d="M -99.0 -132.0 C -57.0 -132.0, -99.0 -132.0, -57.0 -132.0 C -54.23857625084603 -132.0, -52.0 -129.76142374915395, -52.0 -127.0 C -52.0 -117.0, -52.0 -127.0, -52.0 -117.0 C -52.0 -114.23857625084602, -54.23857625084603 -112.0, -57.0 -112.0 C -99.0 -112.0, -57.0 -112.0, -99.0 -112.0 C -101.76142374915396 -112.0, -104.0 -114.23857625084602, -104.0 -117.0 C -104.0 -127.0, -104.0 -117.0, -104.0 -127.0 C -104.0 -129.76142374915395, -101.76142374915396 -132.0, -99.0 -132.0 z" stroke-width="2.0" stroke="#ffffff" fill="none"/>
<path d="M -91.0 -150.0 C -2.0 -150.0, -91.0 -150.0, -2.0 -150.0 C -2.0 -132.0, -2.0 -150.0, -2.0 -132.0 C -91.0 -132.0, -2.0 -132.0, -91.0 -132.0 C -91.0 -150.0, -91.0 -132.0, -91.0 -150.0 z" stroke-width="1.0" stroke="#ffffff" fill="#ffffff"/>
<text x="-89" y="-136.0"  font-weight="normal" font-style="roman" font-family="Arial" font-size="14.0" fill="#000000" >2822 BbsI (2)</text>
<path d="M -40.0 -170.0 C -5.0 -170.0, -40.0 -170.0, -5.0 -170.0 C -2.2385762508460303 -170.0, 0.0 -167.76142374915398, 0.0 -165.0 C 0.0 -155.0, 0.0 -165.0, 0.0 -155.0 C 0.0 -152.23857625084602, -2.2385762508460303 -150.0, -5.0 -150.0 C -40.0 -150.0, -5.0 -150.0, -40.0 -150.0 C -42.76142374915397 -150.0, -45.0 -152.23857625084602, -45.0 -155.0 C -45.0 -165.0, -45.0 -155.0, -45.0 -165.0 C -45.0 -167.76142374915398, -42.76142374915397 -170.0, -40.0 -170.0 z" stroke-width="2.0" stroke="#ffffff" fill="none"/>
<path d="M -89.0 -188.0 C 0.0 -188.0, -89.0 -188.0, 0.0 -188.0 C 0.0 -170.0, 0.0 -188.0, 0.0 -170.0 C -89.0 -170.0, 0.0 -170.0, -89.0 -170.0 C -89.0 -188.0, -89.0 -170.0, -89.0 -188.0 z" stroke-width="1.0" stroke="#ffffff" fill="#ffffff"/>
<text x="-87" y="-174.0"  font-weight="normal" font-style="roman" font-family="Arial" font-size="14.0" fill="#000000" >2835 BsaI (2)</text>
<path d="M 46.01495834389039,75.04967506463451 A 88.03311944204404,88.03311944204404 0 0 0 40.35895440017561,-78.23672359206857" stroke-width="7.0037523452157595" stroke="#8c7d15" fill="none"/>
<polygon points="47.52467637757072 77.05835818489915 48.8379901368824 79.18781617994523 37.41359400691439 79.68722044457927 43.58473509963569 70.6699841997609 44.89804885894736 72.79944219480699" stroke-width="2.0" stroke="#8c7d15" fill="#000000"/>
<polygon points="41.716529758354554 -80.35120768143663 41.259146661225884 -80.58702282459934 38.97880688249066 -76.13308209466479 39.41091100623029 -75.91030015007493" stroke-width="2.0" stroke="#8c7d15" fill="#000000"/>
<path d="M 46.01495834389039,75.04967506463451 A 88.03311944204404,88.03311944204404 0 0 0 40.35895440017561,-78.23672359206857" stroke-width="5.0037523452157595" stroke="#e9d024" fill="none"/>
<polygon points="47.52467637757072 77.05835818489915 48.8379901368824 79.18781617994523 37.41359400691439 79.68722044457927 43.58473509963569 70.6699841997609 44.89804885894736 72.79944219480699" stroke-width="1.0" stroke="none" fill="#e9d024"/>
<polygon points="41.716529758354554 -80.35120768143663 41.259146661225884 -80.58702282459934 38.97880688249066 -76.13308209466479 39.41091100623029 -75.91030015007493" stroke-width="1.0" stroke="none" fill="#e9d024"/>
<path d="M 43.69935576790363,76.42117785121725 A 88.03311944204404,88.03311944204404 0 0 0 44.09919432331104,76.19114895269689" stroke-width="7.0037523452157595" stroke="#008651" fill="none"/>
<polygon points="45.147381838142095 78.47483255226506 46.395000597160376 80.64343390226205 42.153685718153085 77.28451914240243 41.40452556108726 71.96902850227411 42.652144320105535 74.13762985227109" stroke-width="2.0" stroke="#008651" fill="#000000"/>
<polygon points="45.147381838142095 78.47483255226506 45.2365619425138 78.42345882812204 42.73639555522214 74.08909548754835 42.652144320105535 74.13762985227109" stroke-width="2.0" stroke="#008651" fill="#000000"/>
<path d="M 43.69935576790363,76.42117785121725 A 88.03311944204404,88.03311944204404 0 0 0 44.09919432331104,76.19114895269689" stroke-width="5.0037523452157595" stroke="#00df87" fill="none"/>
<polygon points="45.147381838142095 78.47483255226506 46.395000597160376 80.64343390226205 42.153685718153085 77.28451914240243 41.40452556108726 71.96902850227411 42.652144320105535 74.13762985227109" stroke-width="1.0" stroke="none" fill="#00df87"/>
<polygon points="45.147381838142095 78.47483255226506 45.2365619425138 78.42345882812204 42.73639555522214 74.08909548754835 42.652144320105535 74.13762985227109" stroke-width="1.0" stroke="none" fill="#00df87"/>
<path d="M -83.5777376264537,27.651254798667992 A 88.03311944204404,88.03311944204404 0 0 0 -83.43170074495424,28.08881324480606" stroke-width="7.0037523452157595" stroke="#5c5c5c" fill="none"/>
<polygon points="-81.13173809714161 27.078305865624042 -81.16246797722587 26.986058753757522 -85.91063804889447 28.564798283497257 -85.87811040808954 28.662442039732518" stroke-width="2.0" stroke="#5c5c5c" fill="#000000"/>
<polygon points="-81.13173809714161 27.078305865624042 -78.75855194166765 26.286237778569806 -82.84974281438768 29.761556314934367 -88.2512965635635 29.454510126786758 -85.87811040808954 28.662442039732518" stroke-width="2.0" stroke="#5c5c5c" fill="#000000"/>
<path d="M -83.5777376264537,27.651254798667992 A 88.03311944204404,88.03311944204404 0 0 0 -83.43170074495424,28.08881324480606" stroke-width="5.0037523452157595" stroke="#999999" fill="none"/>
<polygon points="-81.13173809714161 27.078305865624042 -81.16246797722587 26.986058753757522 -85.91063804889447 28.564798283497257 -85.87811040808954 28.662442039732518" stroke-width="1.0" stroke="none" fill="#999999"/>
<polygon points="-81.13173809714161 27.078305865624042 -78.75855194166765 26.286237778569806 -82.84974281438768 29.761556314934367 -88.2512965635635 29.454510126786758 -85.87811040808954 28.662442039732518" stroke-width="1.0" stroke="none" fill="#999999"/>
<path d="M -80.68680424363967,35.20610372713465 A 88.03311944204404,88.03311944204404 0 0 0 7.157183107047161,87.7416939012998" stroke-width="7.0037523452157595" stroke="#4b9945" fill="none"/>
<polygon points="-82.88464631865274 36.424179271150166 -85.1751100259941 37.430737957176554 -84.09155715154675 26.046883393706427 -76.01325519662869 33.40450321307102 -78.30371890397005 34.4110618990974" stroke-width="2.0" stroke="#4b9945" fill="#000000"/>
<polygon points="7.124515935642447 90.2542337158087 7.637398008568968 90.21228066401908 7.2152888789746825 85.22636435756492 6.730753136191574 85.26599871833506" stroke-width="2.0" stroke="#4b9945" fill="#000000"/>
<path d="M -80.68680424363967,35.20610372713465 A 88.03311944204404,88.03311944204404 0 0 0 7.157183107047161,87.7416939012998" stroke-width="5.0037523452157595" stroke="#7eff74" fill="none"/>
<polygon points="-82.88464631865274 36.424179271150166 -85.1751100259941 37.430737957176554 -84.09155715154675 26.046883393706427 -76.01325519662869 33.40450321307102 -78.30371890397005 34.4110618990974" stroke-width="1.0" stroke="none" fill="#7eff74"/>
<polygon points="7.124515935642447 90.2542337158087 7.637398008568968 90.21228066401908 7.2152888789746825 85.22636435756492 6.730753136191574 85.26599871833506" stroke-width="1.0" stroke="none" fill="#7eff74"/>
<path d="M -78.14189407801206,-40.5422558400237 A 88.03311944204404,88.03311944204404 0 0 0 -83.50272234863635,-27.8769704068383" stroke-width="7.0037523452157595" stroke="#1f4286" fill="none"/>
<polygon points="-80.47171954484719 -41.483584517740276 -82.69550357809516 -42.62995660242068 -73.16726685638959 -48.95284648989336 -73.80036744510332 -38.04446826369907 -76.02415147835127 -39.190840348379474" stroke-width="2.0" stroke="#1f4286" fill="#000000"/>
<polygon points="-85.80050788985639 -28.893914182535642 -85.96335238359588 -28.4057648712152 -81.2122688586919 -26.83581491289226 -81.05842456992202 -27.296984841878253" stroke-width="2.0" stroke="#1f4286" fill="#000000"/>
<path d="M -78.14189407801206,-40.5422558400237 A 88.03311944204404,88.03311944204404 0 0 0 -83.50272234863635,-27.8769704068383" stroke-width="5.0037523452157595" stroke="#346ee0" fill="none"/>
<polygon points="-80.47171954484719 -41.483584517740276 -82.69550357809516 -42.62995660242068 -73.16726685638959 -48.95284648989336 -73.80036744510332 -38.04446826369907 -76.02415147835127 -39.190840348379474" stroke-width="1.0" stroke="none" fill="#346ee0"/>
<polygon points="-85.80050788985639 -28.893914182535642 -85.96335238359588 -28.4057648712152 -81.2122688586919 -26.83581491289226 -81.05842456992202 -27.296984841878253" stroke-width="1.0" stroke="none" fill="#346ee0"/>
<path d="M -31.291315630457653,-82.28416424083233 A 88.03311944204404,88.03311944204404 0 0 0 -72.1906543599843,-50.38193666160991" stroke-width="7.0037523452157595" stroke="#8c7d15" fill="none"/>
<polygon points="-32.40234112777276 -84.53800163467604 -33.297758912397555 -86.87415474910169 -21.97906343670219 -85.24523968611157 -29.71608777389838 -77.52954229139908 -30.611505558523174 -79.86569540582474" stroke-width="2.0" stroke="#8c7d15" fill="#000000"/>
<polygon points="-74.1063988029977 -52.00795215537817 -74.40081036555578 -51.58589776182682 -70.28877361308088 -48.73481177951273 -70.01063379755948 -49.13353977151954" stroke-width="2.0" stroke="#8c7d15" fill="#000000"/>
<path d="M -31.291315630457653,-82.28416424083233 A 88.03311944204404,88.03311944204404 0 0 0 -72.1906543599843,-50.38193666160991" stroke-width="5.0037523452157595" stroke="#e9d024" fill="none"/>
<polygon points="-32.40234112777276 -84.53800163467604 -33.297758912397555 -86.87415474910169 -21.97906343670219 -85.24523968611157 -29.71608777389838 -77.52954229139908 -30.611505558523174 -79.86569540582474" stroke-width="1.0" stroke="none" fill="#e9d024"/>
<polygon points="-74.1063988029977 -52.00795215537817 -74.40081036555578 -51.58589776182682 -70.28877361308088 -48.73481177951273 -70.01063379755948 -49.13353977151954" stroke-width="1.0" stroke="none" fill="#e9d024"/>
<path d="M -76.67603103973423,-43.25062291679631 A 88.03311944204404,88.03311944204404 0 0 0 -76.9016068618347,-42.84825528262513" stroke-width="7.0037523452157595" stroke="#1f4286" fill="none"/>
<polygon points="-78.97150469703165 -44.27286840528576 -81.15383126119751 -45.49632054999722 -75.79065484091302 -44.78400113302495 -72.42452500453406 -40.60251197115137 -74.60685156869992 -41.82596411586284" stroke-width="2.0" stroke="#1f4286" fill="#000000"/>
<polygon points="-78.97150469703165 -44.27286840528576 -79.0217825514637 -44.18306591143522 -74.65435063101609 -41.741124889930525 -74.60685156869992 -41.82596411586284" stroke-width="2.0" stroke="#1f4286" fill="#000000"/>
<path d="M -76.67603103973423,-43.25062291679631 A 88.03311944204404,88.03311944204404 0 0 0 -76.9016068618347,-42.84825528262513" stroke-width="5.0037523452157595" stroke="#346ee0" fill="none"/>
<polygon points="-78.97150469703165 -44.27286840528576 -81.15383126119751 -45.49632054999722 -75.79065484091302 -44.78400113302495 -72.42452500453406 -40.60251197115137 -74.60685156869992 -41.82596411586284" stroke-width="1.0" stroke="none" fill="#346ee0"/>
<polygon points="-78.97150469703165 -44.27286840528576 -79.0217825514637 -44.18306591143522 -74.65435063101609 -41.741124889930525 -74.60685156869992 -41.82596411586284" stroke-width="1.0" stroke="none" fill="#346ee0"/>
<path d="M -86.10071929798633,-18.343834252046577 A 88.03311944204404,88.03311944204404 0 0 0 -86.19565693210345,-17.892424227597527" stroke-width="7.0037523452157595" stroke="#4b9945" fill="none"/>
<polygon points="-88.59684532174222 -18.632885712640572 -91.04516196188597 -19.14779348366207 -85.7143731638368 -20.071779986531496 -81.251895401311 -17.08816239957609 -83.70021204145475 -17.603070170597583" stroke-width="2.0" stroke="#4b9945" fill="#000000"/>
<polygon points="-88.59684532174222 -18.632885712640572 -88.61796972297843 -18.532157810744035 -83.72016892430196 -17.507909369819476 -83.70021204145475 -17.603070170597583" stroke-width="2.0" stroke="#4b9945" fill="#000000"/>
<path d="M -86.10071929798633,-18.343834252046577 A 88.03311944204404,88.03311944204404 0 0 0 -86.19565693210345,-17.892424227597527" stroke-width="5.0037523452157595" stroke="#7eff74" fill="none"/>
<polygon points="-88.59684532174222 -18.632885712640572 -91.04516196188597 -19.14779348366207 -85.7143731638368 -20.071779986531496 -81.251895401311 -17.08816239957609 -83.70021204145475 -17.603070170597583" stroke-width="1.0" stroke="none" fill="#7eff74"/>
<polygon points="-88.59684532174222 -18.632885712640572 -88.61796972297843 -18.532157810744035 -83.72016892430196 -17.507909369819476 -83.70021204145475 -17.603070170597583" stroke-width="1.0" stroke="none" fill="#7eff74"/>
<path d="M -3.5381046764023565,-87.96199141672506 A 88.03311944204404,88.03311944204404 0 0 0 -3.998967157702278,-87.94224457204177" stroke-width="7.0037523452157595" stroke="#4b9945" fill="none"/>
<polygon points="-3.8757731634845953 -90.45199728767881 -3.982877653437052 -92.95157985508783 -1.7682008921415322 -88.01535993394688 -3.554459693627226 -82.95324958545174 -3.6615641835796824 -85.45283215286076" stroke-width="2.0" stroke="#4b9945" fill="#000000"/>
<polygon points="-3.8757731634845953 -90.45199728767881 -3.9785954367024052 -90.4475329088422 -3.7587036024795455 -85.44861451447984 -3.6615641835796824 -85.45283215286076" stroke-width="2.0" stroke="#4b9945" fill="#000000"/>
<path d="M -3.5381046764023565,-87.96199141672506 A 88.03311944204404,88.03311944204404 0 0 0 -3.998967157702278,-87.94224457204177" stroke-width="5.0037523452157595" stroke="#7eff74" fill="none"/>
<polygon points="-3.8757731634845953 -90.45199728767881 -3.982877653437052 -92.95157985508783 -1.7682008921415322 -88.01535993394688 -3.554459693627226 -82.95324958545174 -3.6615641835796824 -85.45283215286076" stroke-width="1.0" stroke="none" fill="#7eff74"/>
<polygon points="-3.8757731634845953 -90.45199728767881 -3.9785954367024052 -90.4475329088422 -3.7587036024795455 -85.44861451447984 -3.6615641835796824 -85.45283215286076" stroke-width="1.0" stroke="none" fill="#7eff74"/>
<text x="-35" y="-12.0"  font-weight="normal" font-style="roman" font-family="Arial" font-size="14.0" fill="#000000" >pICH41308</text>
<text x="-25" y="22.0"  font-weight="normal" font-style="roman" font-family="Arial" font-size="14.0" fill="#000000" >2845 bp</text>
<text x="-134" y="-41.0"  font-weight="normal" font-style="roman" font-family="Arial" font-size="14.0" fill="#7eff74" >AATG</text>
<text x="-155" y="-79.0"  font-weight="normal" font-style="roman" font-family="Arial" font-size="14.0" fill="#346ee0" >P\lac\prom</text>
<text x="-131" y="-98.0"  font-weight="normal" font-style="roman" font-family="Arial" font-size="14.0" fill="#346ee0" >P(LAC)</text>
<text x="-42" y="-155.0"  font-weight="normal" font-style="roman" font-family="Arial" font-size="14.0" fill="#7eff74" >GCTT</text>
<text x="-101" y="-117.0"  font-weight="normal" font-style="roman" font-family="Arial" font-size="14.0" fill="#e9d024" >ALPHA</text>
</svg>

